<?xml version="1.0" standalone="no"?>
<!DOCTYPE svg PUBLIC "-//W3C//DTD SVG 20010904//EN"
 "http://www.w3.org/TR/2001/REC-SVG-20010904/DTD/svg10.dtd">
<svg version="1.0" xmlns="http://www.w3.org/2000/svg"
 width="874.000000pt" height="874.000000pt" viewBox="0 0 874.000000 874.000000"
 preserveAspectRatio="xMidYMid meet">
<metadata>
Created by potrace 1.11, written by Peter Selinger 2001-2013
</metadata>
<g transform="translate(0.000000,874.000000) scale(0.100000,-0.100000)"
fill="#000000" stroke="none">
<path d="M4447 6936 c-28 -31 -36 -41 -75 -98 -18 -26 -41 -50 -52 -53 -11 -4
-18 -11 -14 -16 8 -13 -35 -81 -47 -73 -5 3 -8 1 -7 -4 4 -11 -46 -82 -96
-137 -19 -22 -36 -44 -36 -48 0 -5 -6 -5 -12 -1 -7 4 -10 4 -6 -1 9 -10 -61
-97 -73 -89 -5 3 -6 -2 -3 -10 6 -15 2 -18 -36 -20 -8 -1 -15 -7 -15 -14 0 -7
-7 -17 -15 -22 -12 -8 -12 -10 -1 -10 11 0 11 -3 1 -15 -7 -8 -17 -15 -23 -15
-5 0 -15 -8 -22 -17 -20 -27 -51 -25 -77 5 -29 34 -72 62 -96 62 -10 0 -31
-12 -45 -27 -42 -43 -77 -87 -77 -96 0 -5 -4 -5 -10 -2 -5 3 -10 0 -10 -7 -1
-17 -39 -63 -46 -55 -6 5 -44 -28 -44 -39 0 -3 -8 -13 -18 -22 -10 -10 -12
-13 -5 -8 20 13 15 -5 -8 -30 -12 -13 -28 -20 -38 -17 -12 4 -13 3 -3 -5 19
-13 -42 -83 -66 -76 -14 5 -14 4 -3 -4 11 -8 -8 -33 -90 -116 -57 -58 -108
-106 -113 -106 -4 0 -3 6 3 14 10 12 9 14 -7 10 -10 -3 -24 2 -31 10 -8 9 -21
16 -31 16 -17 0 -155 -138 -175 -175 -6 -11 -17 -20 -25 -20 -21 0 -40 -20
-40 -43 0 -25 -33 -54 -56 -50 -13 2 -20 -5 -25 -27 -4 -16 -7 -23 -8 -15 -1
12 -4 11 -12 -3 -6 -9 -15 -14 -21 -11 -6 4 -8 3 -5 -2 3 -6 2 -16 -3 -24 -11
-18 -42 -3 -46 21 -1 7 -8 28 -15 44 -7 17 -13 41 -13 54 -1 33 -33 52 -50 29
-7 -10 -16 -15 -19 -11 -4 3 -6 -11 -5 -31 1 -21 -6 -43 -15 -54 -10 -10 -17
-24 -17 -31 0 -6 -7 -23 -16 -36 -13 -20 -18 -22 -29 -12 -7 7 -16 23 -20 36
-6 18 -4 22 6 15 9 -5 8 1 -3 18 -13 20 -14 28 -5 31 8 4 6 6 -4 6 -11 1 -15
11 -14 40 1 28 -3 37 -12 34 -9 -4 -11 0 -7 11 3 9 1 16 -6 16 -6 0 -9 4 -5 9
3 5 1 12 -4 16 -6 3 -8 12 -4 20 3 8 1 15 -3 15 -5 0 -15 14 -23 30 -10 25
-16 28 -27 19 -8 -6 -14 -18 -14 -25 0 -8 -4 -14 -8 -14 -5 0 -14 -18 -21 -40
-6 -22 -16 -40 -20 -40 -5 0 -11 -14 -13 -30 -3 -23 -1 -30 9 -26 7 3 13 0 13
-7 0 -19 -20 -36 -36 -30 -10 4 -11 -2 -5 -24 9 -31 -6 -63 -29 -63 -10 0 -10
3 0 15 10 12 9 15 -5 15 -11 0 -15 5 -12 15 4 8 3 17 -2 19 -4 3 -7 19 -6 35
1 17 -2 28 -7 25 -15 -10 -40 26 -36 51 3 13 1 22 -3 19 -5 -3 -9 -13 -9 -22
0 -14 -2 -15 -9 -2 -6 8 -8 17 -5 21 2 4 0 10 -5 13 -5 3 -12 -5 -15 -19 -4
-14 -13 -25 -21 -25 -8 0 -15 -7 -15 -15 0 -9 -9 -25 -20 -37 -10 -12 -17 -25
-14 -29 2 -4 -6 -16 -20 -26 l-23 -18 21 -19 21 -19 -22 5 c-17 5 -21 2 -18
-13 2 -10 -3 -25 -11 -33 -10 -10 -11 -17 -3 -22 8 -4 7 -9 -2 -15 -11 -7 -11
-9 -1 -9 7 0 11 -3 8 -8 -2 -4 -20 -7 -40 -6 -20 1 -36 0 -36 -2 0 -2 12 -15
26 -29 23 -23 24 -26 7 -23 -11 1 -21 0 -21 -4 -6 -26 1 -37 28 -47 49 -17 37
-33 -22 -29 -31 2 -53 -1 -53 -7 0 -5 -4 -17 -10 -25 -7 -13 -6 -13 7 -2 12
10 17 10 27 -1 6 -8 8 -17 4 -20 -3 -4 -1 -7 6 -7 7 0 9 -5 6 -10 -4 -7 -12
-7 -25 0 -24 13 -40 13 -20 0 12 -8 11 -10 -6 -10 -35 0 -35 -12 -2 -42 17
-15 27 -28 22 -29 -5 0 -17 -2 -26 -4 -10 -2 -20 0 -23 5 -6 10 -45 1 -45 -11
0 -4 5 -11 10 -14 6 -3 10 -15 10 -26 0 -12 10 -23 25 -29 27 -10 34 -30 10
-30 -8 0 -15 3 -15 8 0 4 -17 8 -38 8 -30 1 -38 -2 -38 -16 0 -10 6 -16 12
-13 6 2 16 -9 22 -26 8 -23 7 -31 -4 -35 -8 -3 -14 -2 -14 3 0 4 -11 13 -25
19 -19 9 -24 9 -22 -1 1 -6 -3 -11 -9 -10 -8 2 -10 -6 -6 -20 5 -20 4 -21 -14
-7 -18 14 -18 14 -5 -2 7 -10 17 -15 22 -12 5 3 18 -1 29 -9 20 -14 20 -14 -6
-33 -27 -20 -67 -88 -57 -98 3 -3 -15 -14 -40 -25 -79 -34 -76 -22 -77 -419
-1 -316 1 -355 16 -381 17 -29 51 -51 78 -51 8 0 21 -19 31 -42 9 -24 23 -50
31 -59 14 -16 96 -36 119 -30 21 6 336 3 342 -3 3 -3 12 -1 18 4 13 10 63 -28
147 -113 20 -20 41 -37 46 -37 4 0 25 -15 45 -34 20 -18 37 -32 37 -30 0 2 10
-7 23 -19 13 -12 45 -39 71 -61 30 -24 45 -43 42 -53 -3 -8 -1 -11 4 -8 6 3
10 2 10 -4 0 -6 6 -8 13 -5 7 2 23 -4 35 -15 16 -14 19 -21 10 -24 -8 -4 -7
-6 5 -6 9 -1 17 -5 17 -11 0 -5 6 -9 13 -7 6 1 11 -3 10 -10 -1 -6 11 -16 26
-21 16 -6 46 -26 68 -45 80 -71 162 -97 316 -97 l108 0 89 -72 c50 -39 90 -75
90 -80 0 -4 4 -8 10 -8 5 0 20 -10 33 -23 14 -12 46 -40 72 -62 27 -22 71 -61
99 -87 28 -26 55 -48 60 -48 6 0 34 -25 63 -55 29 -31 54 -55 55 -53 6 4 63
-38 98 -71 19 -18 51 -45 72 -59 21 -13 38 -31 38 -38 0 -8 6 -14 13 -14 6 0
37 -22 68 -48 30 -26 77 -65 103 -87 54 -46 140 -95 168 -95 10 0 27 -5 37
-12 15 -9 28 -9 59 0 22 7 48 12 59 12 19 0 83 29 106 48 7 6 19 12 27 14 8 2
27 17 42 33 15 17 28 26 28 21 0 -13 40 25 40 38 0 6 22 27 49 46 43 31 168
134 213 176 12 12 21 13 36 5 16 -9 19 -7 15 12 -3 17 12 36 72 87 42 36 86
68 96 72 11 4 22 14 25 23 4 8 12 15 19 15 7 0 42 28 78 63 87 84 113 107 124
107 4 0 14 9 21 20 7 11 18 20 25 20 7 0 18 9 25 21 7 12 16 19 18 16 3 -3 21
10 39 29 l34 34 108 0 c186 1 245 24 394 154 26 23 58 51 72 62 14 12 50 42
79 67 29 24 68 48 86 52 17 3 32 11 32 17 0 13 47 58 61 58 5 0 9 6 9 14 0 8
26 36 57 63 32 26 67 56 78 67 52 48 52 48 295 48 126 1 230 5 230 9 0 4 9 10
19 14 20 6 46 58 43 85 0 10 8 16 24 18 34 3 74 31 85 59 5 14 9 185 9 382 l0
358 -25 23 c-13 12 -23 26 -20 29 2 4 -12 6 -31 6 -26 -1 -34 2 -34 16 0 10
-4 20 -9 23 -4 3 -11 19 -14 36 -4 19 -13 30 -24 30 -13 0 -14 3 -5 12 17 17
-3 45 -38 53 -35 8 -37 18 -10 45 20 20 27 50 11 50 -5 0 -14 13 -21 30 -7 16
-16 27 -20 25 -5 -3 -11 -1 -15 5 -3 5 2 10 12 11 10 0 13 3 6 6 -9 3 -10 10
-2 24 5 11 6 19 2 18 -25 -4 -35 3 -30 21 3 13 0 20 -8 20 -8 0 -17 5 -21 12
-5 8 0 9 14 6 13 -4 20 -2 16 4 -3 5 -16 8 -27 7 -12 0 -28 -1 -34 0 -18 1
-16 41 1 41 21 0 15 39 -6 46 -20 6 -23 19 -7 29 7 5 4 14 -7 26 -9 10 -13 19
-9 19 5 0 4 5 -3 12 -7 7 -12 22 -12 33 0 12 -9 32 -20 45 -20 23 -26 42 -12
38 22 -7 68 12 69 29 1 25 11 61 19 75 4 7 3 8 -4 4 -12 -7 -17 10 -14 49 2
15 0 17 -7 6 -6 -9 -10 -10 -16 -2 -4 7 -1 19 7 28 8 10 8 14 1 10 -6 -4 -14
-3 -18 3 -3 6 0 13 8 16 8 3 15 16 15 30 0 14 -3 23 -6 20 -2 -3 -13 6 -24 19
-11 14 -25 25 -31 25 -7 0 -18 9 -25 20 -10 16 -10 20 0 20 9 0 8 3 -2 10 -8
5 -11 10 -6 10 5 0 -1 11 -13 24 -17 18 -19 26 -10 32 7 4 14 3 17 -4 4 -14
22 -16 22 -2 0 5 -12 13 -27 16 -15 4 -34 13 -41 21 -7 7 -20 13 -29 13 -8 0
-13 6 -11 12 3 7 -4 21 -14 32 -10 11 -18 26 -18 33 0 7 -7 13 -16 13 -9 0
-18 9 -21 21 -3 12 -11 18 -19 15 -8 -3 -14 -1 -14 4 0 23 -39 -16 -44 -43 -3
-17 -9 -27 -13 -24 -3 4 -17 -5 -30 -19 -12 -14 -23 -20 -23 -14 0 6 -5 8 -11
5 -6 -4 -8 -13 -5 -21 6 -17 -33 -56 -50 -50 -7 3 -10 -2 -7 -13 2 -10 -2 -23
-11 -30 -11 -9 -13 -19 -6 -37 8 -19 6 -26 -5 -30 -8 -4 -15 -12 -15 -19 0 -6
-9 -20 -21 -31 -13 -12 -18 -25 -15 -40 4 -16 -1 -28 -17 -41 -13 -10 -22 -23
-20 -30 8 -23 -15 -22 -43 2 -22 19 -28 32 -26 54 3 22 -2 33 -17 41 -18 9
-21 8 -21 -12 -1 -32 -44 -83 -61 -72 -11 6 -12 5 -2 -7 10 -12 9 -20 -3 -37
-8 -12 -12 -22 -8 -22 3 0 0 -7 -7 -16 -7 -9 -15 -25 -16 -37 -5 -30 -11 -32
-33 -12 -16 15 -18 21 -8 34 10 13 10 14 -2 4 -11 -10 -18 -9 -37 9 -13 12
-23 28 -23 36 0 9 -7 13 -20 9 -10 -3 -24 1 -31 9 -9 11 -8 14 2 14 8 0 -3 9
-24 20 -38 20 -64 27 -37 10 12 -8 12 -10 -5 -10 -11 1 -54 32 -95 71 -86 80
-214 169 -280 195 -25 10 -56 30 -70 44 -14 15 -30 25 -36 23 -10 -3 -98 105
-140 172 -10 17 -21 32 -24 35 -20 17 -40 58 -40 81 0 17 -5 26 -14 25 -7 0
-29 21 -47 49 -52 76 -90 74 -171 -10 -29 -30 -58 -55 -66 -55 -7 0 -10 4 -7
10 3 5 0 7 -8 4 -9 -3 -28 14 -53 48 -21 29 -41 55 -44 58 -25 22 -71 93 -67
103 2 7 -1 18 -9 24 -8 8 -14 9 -16 2 -2 -6 -26 20 -53 58 -127 175 -145 202
-139 220 4 12 3 14 -3 5 -7 -9 -15 -2 -31 26 -12 22 -18 43 -14 47 4 5 2 5 -5
1 -8 -4 -21 13 -39 50 -27 58 -56 94 -74 94 -6 0 -21 -11 -33 -24z"/>
<path d="M3708 6393 c7 -3 16 -2 19 1 4 3 -2 6 -13 5 -11 0 -14 -3 -6 -6z"/>
<path d="M6490 5770 c0 -6 7 -10 15 -10 8 0 15 2 15 4 0 2 -7 6 -15 10 -8 3
-15 1 -15 -4z"/>
<path d="M5907 5689 c7 -7 15 -10 18 -7 3 3 -2 9 -12 12 -14 6 -15 5 -6 -5z"/>
<path d="M2245 5550 c3 -5 8 -10 11 -10 2 0 4 5 4 10 0 6 -5 10 -11 10 -5 0
-7 -4 -4 -10z"/>
<path d="M1865 5160 c-3 -6 1 -7 9 -4 18 7 21 14 7 14 -6 0 -13 -4 -16 -10z"/>
<path d="M1670 3712 c0 -5 6 -15 14 -21 12 -10 14 -9 12 5 -3 19 -26 33 -26
16z"/>
<path d="M6710 3636 c0 -2 7 -7 16 -10 8 -3 12 -2 9 4 -6 10 -25 14 -25 6z"/>
<path d="M2968 3073 c6 -2 18 -2 25 0 6 3 1 5 -13 5 -14 0 -19 -2 -12 -5z"/>
<path d="M5714 3053 c10 -11 36 -12 36 -2 0 5 -10 9 -22 9 -12 0 -18 -3 -14
-7z"/>
<path d="M5440 2830 c-13 -8 -12 -10 3 -10 9 0 17 5 17 10 0 12 -1 12 -20 0z"/>
<path d="M5196 2604 c-9 -22 -8 -24 8 -18 20 8 29 34 12 34 -8 0 -17 -7 -20
-16z"/>
<path d="M5225 2530 c-3 -5 1 -10 10 -10 9 0 13 5 10 10 -3 6 -8 10 -10 10 -2
0 -7 -4 -10 -10z"/>
<path d="M4660 2190 c0 -5 5 -10 10 -10 6 0 10 5 10 10 0 6 -4 10 -10 10 -5 0
-10 -4 -10 -10z"/>
</g>
</svg>
