<?xml version="1.0"?>
<svg xmlns="http://www.w3.org/2000/svg" height="512px" viewBox="0 0 64 64" width="512px"><g><g id="cool_drink" data-name="cool drink"><path d="m29 50a9.008 9.008 0 0 1 -8.05-5h-1.83l1.18 10h1.7v2h-1.46l.35 3h22.22l.35-3h-19.46v-2h19.7l1.18-10h-7.83a9.008 9.008 0 0 1 -8.05 5z" data-original="#000000" class="active-path" data-old_color="#000000" fill="#595959"/><path d="m20 41a8.805 8.805 0 0 1 .53-3h-2.23l.59 5h1.34a8.759 8.759 0 0 1 -.23-2z" data-original="#000000" class="active-path" data-old_color="#000000" fill="#595959"/><path d="m50 22h-36a2 2 0 0 0 0 4h36a2 2 0 0 0 0-4z" data-original="#000000" class="active-path" data-old_color="#000000" fill="#595959"/><circle cx="29" cy="41" r="3" data-original="#000000" class="active-path" data-old_color="#000000" fill="#595959"/><path d="m18.07 36h3.45a8.994 8.994 0 0 1 14.96 0h9.45l.95-8h-29.76z" data-original="#000000" class="active-path" data-old_color="#000000" fill="#595959"/><path d="m38 41a8.759 8.759 0 0 1 -.23 2h7.34l.59-5h-8.23a8.805 8.805 0 0 1 .53 3z" data-original="#000000" class="active-path" data-old_color="#000000" fill="#595959"/><path d="m44.073 7.6.691-1.8 5.552-1.85-.632-1.9-6 2a1 1 0 0 0 -.618.59l-.548 1.436 1.426 1.424z" data-original="#000000" class="active-path" data-old_color="#000000" fill="#595959"/><path d="m43.28 9.66-3.35 8.7-1.86-.72 3.6-9.36a15.957 15.957 0 0 0 -25.62 11.72h31.9a15.956 15.956 0 0 0 -4.67-10.34z" data-original="#000000" class="active-path" data-old_color="#000000" fill="#595959"/><path d="m29 48a7 7 0 1 0 -7-7 7.008 7.008 0 0 0 7 7zm0-12a5 5 0 1 1 -5 5 5.006 5.006 0 0 1 5-5z" data-original="#000000" class="active-path" data-old_color="#000000" fill="#595959"/></g></g> </svg>
