<?xml version="1.0"?>
<svg xmlns="http://www.w3.org/2000/svg" id="Capa_1" enable-background="new 0 0 512 512" height="512px" viewBox="0 0 512 512" width="512px"><g><g><g><path d="m279.599 204.094 4.462-21.833h-56.123l4.463 21.833z" data-original="#000000" class="active-path" data-old_color="#000000" fill="#595959"/><path d="m317.509 359.85v-32.418h-123.018v32.418c0 33.916 27.593 61.509 61.509 61.509s61.509-27.593 61.509-61.509z" data-original="#000000" class="active-path" data-old_color="#000000" fill="#595959"/><path d="m314.682 182.261-8.143 39.837c-1.427 6.982-7.57 11.996-14.696 11.996h-20.843v8.258c0 8.284-6.716 15-15 15s-15-6.716-15-15v-8.258h-20.843c-7.126 0-13.269-5.014-14.696-11.996l-8.143-39.837h-156.054v239.658h147.561c-15.094-16.324-24.334-38.136-24.334-62.069v-47.418c0-8.284 6.716-15 15-15h61.532c.243-8.072 6.846-14.545 14.977-14.545s14.734 6.473 14.977 14.545h89.931c24.935 0 45.221 20.286 45.221 45.221v10.318c0 24.935-20.286 45.221-45.221 45.221h-21.831c-4.05 8.741-9.443 16.736-15.907 23.728h147.566v-239.659z" data-original="#000000" class="active-path" data-old_color="#000000" fill="#595959"/><path d="m376.129 352.971v-10.318c0-8.393-6.828-15.221-15.221-15.221h-13.399v32.418c0 2.812-.135 5.593-.384 8.342h13.783c8.393-.001 15.221-6.829 15.221-15.221z" data-original="#000000" class="active-path" data-old_color="#000000" fill="#595959"/></g><g><path d="m497 512h-482c-8.284 0-15-6.716-15-15v-30.081c0-8.284 6.716-15 15-15h482c8.284 0 15 6.716 15 15v30.081c0 8.284-6.716 15-15 15z" data-original="#000000" class="active-path" data-old_color="#000000" fill="#595959"/><path d="m497 0h-482c-8.284 0-15 6.716-15 15v122.26c0 8.284 6.716 15 15 15h482c8.284 0 15-6.716 15-15v-122.26c0-8.284-6.716-15-15-15zm-105.88 89.67c-1.392 6.929-7.637 12.07-14.71 12.07-6.285 0-11.98-4.054-14.115-9.947-2.129-5.878-.23-12.691 4.605-16.644 4.86-3.973 11.827-4.478 17.218-1.27 5.37 3.198 8.232 9.666 7.002 15.791zm60.095-.543c-1.17 7.175-7.526 12.614-14.805 12.614-6.415 0-12.205-4.226-14.235-10.294-1.991-5.95.098-12.728 5.057-16.558 4.538-3.505 10.793-4.1 15.918-1.537 5.768 2.885 9.103 9.409 8.065 15.775z" data-original="#000000" class="active-path" data-old_color="#000000" fill="#595959"/></g></g></g> </svg>
