<?xml version="1.0"?>
<svg xmlns="http://www.w3.org/2000/svg" id="Capa_1" enable-background="new 0 0 512 512" height="512px" viewBox="0 0 512 512" width="512px"><g><g><path d="m437.02 74.981c-48.353-48.352-112.64-74.981-181.02-74.981s-132.667 26.629-181.02 74.981c-48.351 48.352-74.98 112.639-74.98 181.019s26.629 132.667 74.98 181.019c48.353 48.352 112.64 74.981 181.02 74.981s132.667-26.629 181.02-74.981c48.351-48.352 74.98-112.639 74.98-181.019s-26.629-132.667-74.98-181.019zm-10.608 351.432c-45.518 45.519-106.039 70.587-170.412 70.587s-124.894-25.068-170.412-70.587c-45.52-45.519-70.588-106.039-70.588-170.413s25.068-124.894 70.588-170.413c45.518-45.519 106.039-70.587 170.412-70.587s124.894 25.068 170.412 70.587c45.52 45.519 70.588 106.039 70.588 170.413s-25.068 124.894-70.588 170.413zm-.558-303.855c-2.542-3.23-6.36-5.224-10.477-5.468-4.14-.248-8.203 1.295-11.138 4.229l-35.671 35.671c-.038.036-.074.075-.112.112l-29.004 29.003c-2.929 2.929-2.929 7.678 0 10.606 2.93 2.929 7.678 2.929 10.607 0l18.757-18.757 5.893 33.883c1.109 6.363.824 12.761-.847 19.019-3.053 11.441-9.638 21.309-19.044 28.536-9.562 7.347-21.048 11.038-33.103 11.038-.023 0-.045-.003-.068-.003-12.21 0-24.249-4.018-33.772-11.531l37.548-37.548c2.929-2.929 2.929-7.678 0-10.606-2.93-2.929-7.678-2.929-10.607 0l-42.963 42.962c-.01.01-.022.018-.032.028-.026.025-.049.053-.075.079l-44.824 44.824c-.043.042-.086.085-.129.129l-90.858 90.858c-.04.04-.081.079-.12.12l-14.499 14.499c-2.934 2.934-4.476 6.993-4.229 11.136.245 4.116 2.238 7.934 5.469 10.477 85.633 67.409 208.695 60.363 286.178-17.12 77.302-77.299 84.662-200.329 17.12-286.176zm-201.194 199.555v70.687c0 5.635-4.58 10.22-10.21 10.22h-55.6c-4.054 0-7.597-2.373-9.237-5.859zm173.468 76.015c-71.786 71.787-185.946 78.761-265.805 16.322l6.429-6.429c4.628 6.103 11.945 9.999 20.097 9.999h55.601c13.9 0 25.21-11.314 25.21-25.22v-85.687l37.557-37.557c10.466 8.701 23.389 14.148 36.932 15.525v117.94h-24.827c-4.143 0-7.5 3.358-7.5 7.5s3.357 7.5 7.5 7.5h64.653c4.143 0 7.5-3.358 7.5-7.5s-3.357-7.5-7.5-7.5h-24.826v-117.951c12.591-1.279 24.749-6.052 34.81-13.783 11.878-9.125 20.542-22.111 24.397-36.562 2.236-8.374 2.617-16.941 1.132-25.461l-7.701-44.278 32.663-32.663c62.441 79.859 55.466 194.018-16.322 265.805zm-10.86-307.52c-.357-4.275-2.57-8.156-6.071-10.649-41.082-29.249-91.591-43.174-142.24-39.193-51.218 4.02-99.407 26.216-135.691 62.5-74.369 74.366-84.196 192.395-23.307 277.93 2.492 3.501 6.373 5.714 10.647 6.071 4.22.353 8.431-1.169 11.448-4.191h.001l281.019-281.02c3.02-3.02 4.548-7.192 4.194-11.448zm-115.2 101.241 8.48-48.719h40.239zm63.718-63.719h-57.336c-6.082 0-11.262 4.348-12.319 10.354l-12.314 70.752c-.06.336-.111.685-.165 1.029l-14.296 14.296c-1.329-9.74-7.002-18.605-15.475-23.814-2.632-1.614-4.818-3.891-6.326-6.589-1.508-2.695-2.305-5.754-2.305-8.848v-76.83c0-7.995-6.505-14.5-14.5-14.5h-28.2c-7.995 0-14.5 6.505-14.5 14.5v76.83c0 6.253-3.309 12.168-8.638 15.441-4.801 2.951-8.799 7.114-11.571 12.053-2.755 4.934-4.211 10.521-4.211 16.156v23.276c0 4.142 3.357 7.5 7.5 7.5s7.5-3.358 7.5-7.5v-23.276c0-3.081.798-6.139 2.3-8.829 1.517-2.702 3.709-4.985 6.334-6.599 9.737-5.979 15.786-16.792 15.786-28.222v-76.33h27.2v76.33c0 5.652 1.457 11.244 4.212 16.167 2.756 4.933 6.759 9.102 11.57 12.052 5.322 3.271 8.628 9.184 8.628 15.431v10.297l-76.03 76.03v-28.051c0-4.142-3.357-7.5-7.5-7.5s-7.5 3.358-7.5 7.5v43.051l-41.766 41.766c-56.528-79.856-46.836-189.336 22.008-258.182 33.759-33.76 78.599-54.412 126.258-58.152 46.64-3.66 93.776 9.125 131.923 36.144z" data-original="#000000" class="active-path" data-old_color="#000000" fill="#595959"/></g></g> </svg>
