<?xml version="1.0"?>
<svg xmlns="http://www.w3.org/2000/svg" id="Capa_1" enable-background="new 0 0 512 512" height="512px" viewBox="0 0 512 512" width="512px"><g><g><path d="m497 20c-8.284 0-15 6.716-15 15v45h-31v-25c0-30.327-24.673-55-55-55h-305c33.084 0 60 26.916 60 60v302h300v-252h46c8.284 0 15-6.716 15-15v-60c0-8.284-6.716-15-15-15z" data-original="#000000" class="active-path" data-old_color="#000000" fill="#595959"/><path d="m76 412h45v-302h-60v287c0 8.284 6.716 15 15 15z" data-original="#000000" class="active-path" data-old_color="#000000" fill="#595959"/><path d="m91 30c-16.569 0-30 13.431-30 30v20h60v-20c0-16.569-13.431-30-30-30z" data-original="#000000" class="active-path" data-old_color="#000000" fill="#595959"/><path d="m30 35c0-8.284-6.716-15-15-15s-15 6.716-15 15v60c0 8.284 6.716 15 15 15h46v-30h-31z" data-original="#000000" class="active-path" data-old_color="#000000" fill="#595959"/><path d="m151 392h300v45h-300z" data-original="#000000" class="active-path" data-old_color="#000000" fill="#595959"/><path d="m166 512h270c8.284 0 15-6.716 15-15v-30h-300v30c0 8.284 6.716 15 15 15z" data-original="#000000" class="active-path" data-old_color="#000000" fill="#595959"/></g></g> </svg>
