<svg id="Capa_1" enable-background="new 0 0 512 512" height="512" viewBox="0 0 512 512" width="512" xmlns="http://www.w3.org/2000/svg"><g><path d="m465.397 71.427c-25.697 0-46.604 20.906-46.604 46.604v41.484l-23.093 26.407c7.656 3.203 14.47 6.013 18.672 7.729l10.652 4.349 23.794-27.208v-52.761c0-9.141 7.438-16.579 16.579-16.579s16.578 7.437 16.578 16.579v69.992c0 21.208-7.949 41.436-22.385 56.969l-27.181 28.294v20.446c0 8.385-.604 16.633-1.746 24.712l50.661-52.735.157-.166c19.68-21.121 30.518-48.651 30.518-77.52v-69.992c.001-25.697-20.905-46.604-46.602-46.604z"/><path d="m79.591 273.409-27.167-28.402c-14.446-15.536-22.398-35.768-22.398-56.985v-69.992c0-9.141 7.437-16.579 16.578-16.579s16.579 7.437 16.579 16.579v52.761l23.694 27.094 10.76-4.39c4.046-1.651 10.916-4.495 18.532-7.724l-22.962-26.257v-41.484c0-25.697-20.907-46.604-46.604-46.604s-46.603 20.908-46.603 46.605v69.992c0 28.869 10.838 56.399 30.518 77.52l50.856 53.167c-1.167-8.163-1.783-16.5-1.783-24.978z"/><path d="m403.324 298.5c-47.672-15.298-97.184-23.053-147.324-23.053s-99.652 7.756-147.324 23.054c.352 10.948 1.899 21.603 4.532 31.83 94.539 31.083 193.15 31.115 285.558.09 2.648-10.255 4.205-20.94 4.558-31.921z"/><path d="m108.591 267.122c47.833-14.381 97.325-21.676 147.409-21.676s99.576 7.294 147.409 21.676v-46.623s-45.18-18.448-61.537-26.486c-28.534-14.022-55.486-27.266-85.654-27.736-33.774-.544-63.585 14.907-92.421 29.833-15.661 8.106-55.206 24.238-55.206 24.238z"/><path d="m384.224 366.254c-41.407 11.506-84.094 17.338-127.267 17.338-.313 0-.617 0-.931-.001-43.188-.084-86.253-5.999-128.385-17.578 25.144 44.324 72.631 74.38 126.957 74.559.47.001.939.002 1.408.002.465 0 .929-.001 1.392-.002 54.23-.18 101.646-30.126 126.826-74.318z"/></g></svg>