<?xml version="1.0"?>
<svg xmlns="http://www.w3.org/2000/svg" id="Capa_1" enable-background="new 0 0 512 512" height="512px" viewBox="0 0 512 512" width="512px"><g><g><g><path d="m386.337 452.42h-130.43c-7.562 3.124-15.621 4.695-23.683 4.695-15.808 0-31.617-6.005-43.651-18.016l-39.865-39.788c-5.87-5.858-5.87-15.355 0-21.213 5.869-5.857 15.385-5.858 21.255 0l39.865 39.788c12.35 12.326 32.445 12.324 44.794 0 3.589-3.483 3.625-9.224.081-12.753l-85.812-85.425c-16.872-16.839-39.754-26.298-63.614-26.298h-105.277v45.988 45.613h54.054l109.356 107.58c12.643 12.437 29.681 19.409 47.433 19.409h175.494c16.485 0 29.848-13.337 29.848-29.79 0-16.452-13.363-29.79-29.848-29.79z" data-original="#000000" class="active-path" data-old_color="#000000" fill="#463F8F"/></g><g><path d="m297.727 210.162c0 23.533-19.114 42.61-42.693 42.61s-42.693-19.077-42.693-42.61c0-17.365 23.248-47.773 35.433-62.518 3.765-4.556 10.755-4.556 14.52 0 12.186 14.745 35.433 45.153 35.433 62.518z" data-original="#000000" class="active-path" data-old_color="#000000" fill="#463F8F"/><g><path d="m457.45 0h-203.046c-8.3 0-15.029 6.716-15.029 15v35.225c0 8.284 6.729 15 15.029 15s15.029-6.716 15.029-15v-20.225h117.25v29.204h85.796v-44.204c0-8.284-6.729-15-15.029-15z" data-original="#000000" class="active-path" data-old_color="#000000" fill="#463F8F"/><g><path d="m347.162 211.109h164.838v29.41h-164.838z" data-original="#000000" class="active-path" data-old_color="#000000" fill="#463F8F"/><path d="m347.162 270.52v86.207c0 7.831 6.729 14.179 15.029 14.179h134.779c8.301 0 15.029-6.348 15.029-14.179v-86.207z" data-original="#000000" class="active-path" data-old_color="#000000" fill="#463F8F"/><path d="m512 181.109v-77.726c0-7.831-6.729-14.179-15.029-14.179h-134.779c-8.3 0-15.029 6.348-15.029 14.179v77.726z" data-original="#000000" class="active-path" data-old_color="#000000" fill="#463F8F"/></g></g></g></g></g> </svg>
