<?xml version="1.0"?>
<svg xmlns="http://www.w3.org/2000/svg" viewBox="0 0 64 64" width="512px" height="512px"><g><g id="facemask-coronavirus-faceshield-protect-covid19"><path d="M43.9,18H45V16H42.97A4.84,4.84,0,0,1,43.9,18Z" data-original="#000000" class="active-path" data-old_color="#000000" fill="#463F8F"/><path d="M21.03,16H19v2h1.1A4.84,4.84,0,0,1,21.03,16Z" data-original="#000000" class="active-path" data-old_color="#000000" fill="#463F8F"/><path d="M44,20v5h1a1,1,0,0,0,1-1V21a1,1,0,0,0-1-1Z" data-original="#000000" class="active-path" data-old_color="#000000" fill="#463F8F"/><path d="M18,21v3a1,1,0,0,0,1,1h1V20H19A1,1,0,0,0,18,21Z" data-original="#000000" class="active-path" data-old_color="#000000" fill="#463F8F"/><path d="M17,18.78V16H15.91L14.39,32.73A3.016,3.016,0,0,0,17.38,36h7.99a10.327,10.327,0,0,1-1-.74l.01-.01a.01.01,0,0,0-.01-.01l-.01.01-.06-.06h-.01A11.958,11.958,0,0,1,20.06,27H19a3.009,3.009,0,0,1-3-3V21A2.986,2.986,0,0,1,17,18.78Z" data-original="#000000" class="active-path" data-old_color="#000000" fill="#463F8F"/><path d="M44.92,10A7,7,0,0,0,38,4H32a2.988,2.988,0,0,0-3,3,1,1,0,0,1-2,0,2.006,2.006,0,0,0-2-2H24a5,5,0,0,0-5,5Z" data-original="#000000" class="active-path" data-old_color="#000000" fill="#463F8F"/><path d="M57.91,60l-.4-4.59A14.95,14.95,0,0,0,44.58,42.14a14,14,0,0,1-25.16,0A14.955,14.955,0,0,0,6.47,55.47L6.09,60H16V53a1,1,0,0,1,2,0v7H46V53a1,1,0,0,1,2,0v7Z" data-original="#000000" class="active-path" data-old_color="#000000" fill="#463F8F"/><path d="M14,13a1,1,0,0,0,1,1H49a1,1,0,0,0,0-2H15A1,1,0,0,0,14,13Z" data-original="#000000" class="active-path" data-old_color="#000000" fill="#463F8F"/><path d="M39.71,35.08a.01.01,0,0,1-.01.01l-.05.05c-.37.31-.75.59-1.14.86h8.11a3.016,3.016,0,0,0,2.99-3.27L48.09,16H47v2.78A2.986,2.986,0,0,1,48,21v3a3.009,3.009,0,0,1-3,3H43.91A12.5,12.5,0,0,1,39.71,35.08Z" data-original="#000000" class="active-path" data-old_color="#000000" fill="#463F8F"/><path d="M39,16H25a3.009,3.009,0,0,0-3,3v2.59l3.29,3.29,6.44-1.84a.991.991,0,0,1,.54,0l6.44,1.84L42,21.59V19A3.009,3.009,0,0,0,39,16ZM29,22a1,1,0,0,1-2,0V21a1,1,0,0,1,2,0Zm8,0a1,1,0,0,1-2,0V21a1,1,0,0,1,2,0Z" data-original="#000000" class="active-path" data-old_color="#000000" fill="#463F8F"/><path d="M42,25.64V24.41l-2,2V31.8a10.537,10.537,0,0,0,1.99-5.83C42,25.83,42,25.73,42,25.64Z" data-original="#000000" class="active-path" data-old_color="#000000" fill="#463F8F"/><path d="M22,26a9.979,9.979,0,0,0,2,5.98V26.41l-2-2Z" data-original="#000000" class="active-path" data-old_color="#000000" fill="#463F8F"/><path d="M32,48a12,12,0,0,0,10.39-6H39a3.009,3.009,0,0,1-3-3V38H28v1a3.009,3.009,0,0,1-3,3H21.61A12,12,0,0,0,32,48Z" data-original="#000000" class="active-path" data-old_color="#000000" fill="#463F8F"/><path d="M38,26.75l-6-1.71-6,1.71v7.24A9.861,9.861,0,0,0,32.02,36h.18A9.608,9.608,0,0,0,38,33.9ZM35,33H29a1,1,0,0,1,0-2h6a1,1,0,0,1,0,2Zm0-3H29a1,1,0,0,1,0-2h6a1,1,0,0,1,0,2Z" data-original="#000000" class="active-path" data-old_color="#000000" fill="#463F8F"/></g></g> </svg>
