<?xml version="1.0"?>
<svg xmlns="http://www.w3.org/2000/svg" id="Solid" width="512px" height="512px" viewBox="0 0 512 512"><g><g><path d="M146.3457,130.4443a40.1012,40.1012,0,0,1-9.0811-19.5683,7.9931,7.9931,0,0,0-.1962-.8809,27.58,27.58,0,0,1,2.0087-20.2666,27.9891,27.9891,0,0,1,1.5352-2.5957,7.94,7.94,0,0,0,.4541-.7754c.0606-.1191.1191-.2383.19-.3857a39.928,39.928,0,0,1,41.7832-21.0454,8.006,8.006,0,0,0,8.8955-5.5093,27.604,27.604,0,0,1,1.8134-4.4419c7.0987-13.709,24.2793-18.959,38.3086-11.6958a29.28,29.28,0,0,1,6.3057,4.3989,8.001,8.001,0,0,0,10.9326-.124A55.9811,55.9811,0,0,1,344,88a56.6259,56.6259,0,0,1-.56,7.8516,8,8,0,0,0,5.8056,8.8291,29.4257,29.4257,0,0,1,5.7334,2.2426,28.7768,28.7768,0,0,1,14.2354,16.6621,27.5083,27.5083,0,0,1-12.7676,32.7706,8,8,0,0,0-3.3643,10.3877l.211.437a8.0043,8.0043,0,0,0,3.8818,3.9736l.1113.0527c.2891.1368.5791.2725.8682.4219a28.5879,28.5879,0,0,1,15.5635,23.3682,8.0016,8.0016,0,0,0,5.2392,6.9262A32.0065,32.0065,0,0,1,368,264a31.7672,31.7672,0,0,1-18.5752-5.94,8.0007,8.0007,0,0,0-11.6826,2.6948,52.052,52.052,0,0,1-64.6636,23.6914l69.896-124.3975a8.0007,8.0007,0,0,0-3.0557-10.8935l-8.7177-4.8985a37.79,37.79,0,0,0-22.625-4.646l11.2822-20.08a8.0007,8.0007,0,0,0-3.0557-10.8935l-8.7177-4.8984a38.0613,38.0613,0,0,0-48.3907,9.5158l-2.1572-1.2121a38.0612,38.0612,0,0,0-48.3906,9.5156l-2.1563-1.2119a38.0439,38.0439,0,0,0-51.7431,14.5146l-19.16,34.1a51.4477,51.4477,0,0,1,10.5393-28.4653A8.0008,8.0008,0,0,0,146.3457,130.4443ZM265.1816,298.5a67.8419,67.8419,0,0,0,6.6558,2.45l-9.5347,2.6743Zm-13.081,60.725-56.06,4.273a8.0008,8.0008,0,0,0-6.4883,4.2836L132.5566,477.2876l-97.42-49.355L95.05,323.6523a8.003,8.003,0,0,0,.9941-2.937l4.8887-36.9829a21.9118,21.9118,0,0,1,2.6309-7.8935,8.0166,8.0166,0,0,0,.4687-.9854l21.3448-54.1689,3.6511-6.4977h0l5.72-10.18,6.0369-10.7433,0,0,28.4114-50.5643a22.0255,22.0255,0,0,1,29.956-8.4038l1.7432.98-50.9443,90.668L163.9,233.7812l54.8633-97.642.0075-.014.972-1.73a22.0251,22.0251,0,0,1,29.956-8.4033l1.7439.98-66.62,118.5654,13.9493,7.8379,70.539-125.54.0081-.0146.9714-1.729a22.0256,22.0256,0,0,1,29.9561-8.4033l1.7431.98L219.6953,265.1313l13.9492,7.8379,59.7627-106.36a22.0229,22.0229,0,0,1,29.9561-8.4028l1.7431.9794-58.7817,104.617,0,0-27.4316,48.8213a8,8,0,0,0,9.1347,11.6216l29.4161-8.251a22.1079,22.1079,0,0,1,26.07,12.3042l2.4873,5.6412Zm134.79,117.6475L327.0049,373.1489a7.9994,7.9994,0,0,0-1.9805-2.2871l-22.4319-17.65,17.28-8.1059a7.9993,7.9993,0,0,0,3.9218-10.4707l-5.6416-12.7925a37.8906,37.8906,0,0,0-17.4106-18.4038A67.9839,67.9839,0,0,0,347.44,275.39a47.9783,47.9783,0,0,0,65.3889-60.4919l.6619-2.4695A22.109,22.109,0,0,1,437.373,196.28l6.12.7378-5.7452,59.2583-24.9189,50.3984a7.9975,7.9975,0,0,0,.3037,7.65l63.95,107.0029Z" data-original="#000000" class="active-path" data-old_color="#000000" fill="#463F8F"/><path d="M453.2554,79.4215A24,24,0,1,0,424.0777,53.94a32.012,32.012,0,0,0-17.6548,36.0034Z" data-original="#000000" class="active-path" data-old_color="#000000" fill="#463F8F"/><path d="M50.7444,125.4785,97.5772,136A32.012,32.012,0,0,0,79.9221,99.9966a24.0026,24.0026,0,1,0-29.1777,25.4819Z" data-original="#000000" class="active-path" data-old_color="#000000" fill="#463F8F"/></g></g> </svg>
