<?xml version="1.0"?>
<svg xmlns="http://www.w3.org/2000/svg" id="Layer_3" enable-background="new 0 0 64 64" height="512px" viewBox="0 0 64 64" width="512px"><g><g><path d="m44 31c-.552 0-1 .448-1 1 0 .551.448.999 1 .999.551 0 1-.448 1-.999 0-.552-.449-1-1-1z" data-original="#000000" class="active-path" data-old_color="#000000" fill="#463F8F"/><path d="m46 46c0-1.104-.897-2.001-2-2.001s-2 .897-2 2.001c0 1.103.897 2 2 2s2-.897 2-2z" data-original="#000000" class="active-path" data-old_color="#000000" fill="#463F8F"/><path d="m53.802 44.999c-.98 0-1.931.287-2.748.832-.956.637-2.046 1.007-3.181 1.117-.428 1.747-1.996 3.052-3.873 3.052-2.206 0-4-1.795-4-4 0-.348.059-.68.142-1.002h-.34c-.27 0-.538.025-.803.069v8.931c0 .552.448 1 1 1h14c.552 0 1-.448 1-1v-8.93c-.265-.044-.533-.069-.802-.069z" data-original="#000000" class="active-path" data-old_color="#000000" fill="#463F8F"/><path d="m54.707 5.292 3.293 3.293 1.586-1.586-4-4h-13.586v2h12c.265.001.52.105.707.293z" data-original="#000000" class="active-path" data-old_color="#000000" fill="#463F8F"/><path d="m46 6.999h2v6h-2z" data-original="#000000" class="active-path" data-old_color="#000000" fill="#463F8F"/><path d="m42 17h2v2h2v-2h2v2h2v-2h2v2h3v-3c0-.552-.449-1-1-1h-14c-.552 0-1 .448-1 1v3h3z" data-original="#000000" class="active-path" data-old_color="#000000" fill="#463F8F"/><path d="m56.008 21h-18.008c-2.757 0-5 2.243-5 5v29.999c0 2.758 2.243 5 5 5h18.008c2.757 0 5-2.242 5-4.998v-30.001c0-2.758-2.242-5-5-5zm.991 32.998c0 1.654-1.346 3-3 3h-13.999c-1.654 0-3-1.346-3-3v-25.998c0-1.654 1.346-3 3-3h13.999c1.654 0 3 1.346 3 3z" data-original="#000000" class="active-path" data-old_color="#000000" fill="#463F8F"/><path d="m53.999 27h-13.999c-.552 0-1 .448-1 1v15.06c.267-.031.534-.062.803-.062h.394c.359 0 .717.038 1.073.094.716-.673 1.673-1.093 2.731-1.093 1.841 0 3.379 1.256 3.843 2.953.749-.098 1.467-.361 2.102-.785 1.147-.765 2.481-1.168 3.857-1.168h.395c.269 0 .536.031.802.062v-15.061c-.001-.552-.449-1-1.001-1zm-9.999 7.998c-1.654 0-3-1.345-3-2.999s1.346-3 3-3 3 1.346 3 3-1.346 2.999-3 2.999zm6 6c-1.654 0-3-1.346-3-2.999 0-1.654 1.346-3 3-3s3 1.346 3 3c0 1.653-1.346 2.999-3 2.999z" data-original="#000000" class="active-path" data-old_color="#000000" fill="#463F8F"/><path d="m50 36.999c-.552 0-1 .448-1 1 0 .551.448.999 1 .999.551 0 1-.448 1-.999 0-.552-.449-1-1-1z" data-original="#000000" class="active-path" data-old_color="#000000" fill="#463F8F"/><path d="m7 8.999h12c.552 0 1-.448 1-1v-1.999h-3c-.377 0-.732.147-1 .415l-.586.585c-.645.645-1.502 1-2.414 1-.913 0-1.77-.355-2.415-1l-.585-.586c-.268-.268-.623-.414-1-.414h-3v2c0 .551.448.999 1 .999z" data-original="#000000" class="active-path" data-old_color="#000000" fill="#463F8F"/><path d="m3 57c0 2.204 1.794 3.998 4 3.998h12c2.206 0 4-1.794 4-3.998v-5.002h-20z" data-original="#000000" class="active-path" data-old_color="#000000" fill="#463F8F"/><path d="m11.414 5 .586.585c.535.535 1.467.534 2 0l.585-.585c.646-.645 1.502-1 2.414-1h3c0-.552-.448-1-1-1h-11.999c-.552 0-1 .448-1 1h3c.912 0 1.769.354 2.414 1z" data-original="#000000" class="active-path" data-old_color="#000000" fill="#463F8F"/><path d="m15.991 37.767c.634.563 1.009 1.373 1.009 2.232 0 .341-.074.67-.186.983.019.001.037-.003.056-.001l.134.018c.547-.001.996-.449.996-1.001 0-.002-.017-.126-.018-.129-.055-.406.144-.805.501-1.005.324-.181.517-.506.517-.865 0-.36-.193-.684-.517-.865-.357-.2-.556-.599-.501-1.005l.018-.136c0-.546-.449-.994-1-.994-.003 0-.126.018-.129.018-.402.067-.805-.144-1.005-.501-.363-.646-1.367-.646-1.73 0-.174.311-.494.5-.846.502 1.441.137 2.589 1.298 2.701 2.749z" data-original="#000000" class="active-path" data-old_color="#000000" fill="#463F8F"/><path d="m3 49.999h20v-22h-20zm3.009-12.232c.113-1.47 1.289-2.646 2.758-2.759.509-.573 1.223-.918 1.99-.982.513-.582 1.228-.957 2.01-1.018.563-.633 1.373-1.008 2.233-1.008s1.669.375 2.232 1.008c1.47.112 2.646 1.289 2.759 2.759.634.563 1.009 1.373 1.009 2.232 0 .858-.375 1.669-1.009 2.232-.113 1.469-1.289 2.645-2.758 2.758-.508.573-1.222.918-1.989.982-.502.57-1.209.956-2.011 1.018-.562.634-1.373 1.009-2.232 1.009-.86 0-1.671-.375-2.233-1.009-1.469-.113-2.645-1.289-2.758-2.758-.635-.562-1.01-1.373-1.01-2.232s.375-1.67 1.009-2.232z" data-original="#000000" class="active-path" data-old_color="#000000" fill="#463F8F"/><path d="m18.026 10.999h-10.052c-.129 2.345-1.093 4.533-2.767 6.208-1.424 1.423-2.207 3.315-2.207 5.328v3.465h20v-3.465c0-2.012-.784-3.904-2.208-5.328-1.673-1.674-2.637-3.863-2.766-6.208z" data-original="#000000" class="active-path" data-old_color="#000000" fill="#463F8F"/><path d="m7.516 40.864c.357.2.556.599.501 1.005l-.017.134c0 .547.449.995 1 .995.001 0 .127-.017.129-.017.045-.007.089-.01.134-.01.358 0 .693.192.872.511.363.646 1.367.647 1.73 0 .201-.357.604-.557 1.005-.501l.134.018c.547-.001.996-.449.996-1.001 0-.002-.017-.126-.018-.129-.055-.406.144-.805.501-1.005.324-.181.517-.506.517-.865 0-.36-.193-.684-.517-.865-.357-.2-.556-.599-.501-1.005l.018-.136c0-.546-.449-.994-1-.994-.003 0-.126.018-.129.018-.404.066-.805-.144-1.005-.501-.364-.648-1.366-.647-1.73 0-.201.357-.592.569-1.005.501l-.137-.019c-.546.001-.994.449-.994 1.001 0 .001.017.128.017.13.055.406-.144.805-.501 1.005-.323.181-.516.505-.516.865 0 .359.193.684.516.865z" data-original="#000000" class="active-path" data-old_color="#000000" fill="#463F8F"/></g></g> </svg>
