<?xml version="1.0"?>
<svg xmlns="http://www.w3.org/2000/svg" xmlns:xlink="http://www.w3.org/1999/xlink" version="1.1" id="Capa_1" x="0px" y="0px" viewBox="0 0 414.44 414.44" style="enable-background:new 0 0 414.44 414.44;" xml:space="preserve" width="512px" height="512px"><g><g>
	<g>
		<g>
			<path d="M297.977,297.887c68.096-66.967,69.011-176.457,2.044-244.552c-0.676-0.687-1.357-1.368-2.044-2.044     C229.882-16.905,119.396-16.986,51.2,51.109s-68.277,178.582-0.181,246.777s178.582,68.277,246.777,0.181     C297.856,298.008,297.917,297.947,297.977,297.887z M174.679,324.531C91.868,324.497,24.765,257.337,24.8,174.526     c0.035-82.811,67.195-149.915,150.006-149.88c82.811,0.035,149.915,67.195,149.88,150.006     c-0.017,39.761-15.825,77.887-43.949,105.994C252.604,308.762,214.453,324.548,174.679,324.531z" data-original="#000000" class="active-path" data-old_color="#000000" fill="#FFFFFF"/>
			<path d="M269.765,80.025c-51.682-52.37-136.034-52.928-188.404-1.245c-0.418,0.412-0.833,0.827-1.245,1.245     c-52.37,51.682-52.928,136.034-1.245,188.404c0.412,0.418,0.827,0.833,1.245,1.245c54.987,49.753,139.896,45.51,189.649-9.477     C316.041,209.054,316.041,131.169,269.765,80.025z M227.447,185.56h-47.02v41.796c0,4.328-3.509,7.837-7.837,7.837     c-4.328,0-7.837-3.509-7.837-7.837V185.56h-41.796c-4.328,0-7.837-3.509-7.837-7.837c0-4.328,3.509-7.837,7.837-7.837h41.796     v-47.02c0-4.328,3.509-7.837,7.837-7.837c4.328,0,7.837,3.509,7.837,7.837v47.02h47.02c4.328,0,7.837,3.509,7.837,7.837     C235.283,182.051,231.775,185.56,227.447,185.56z" data-original="#000000" class="active-path" data-old_color="#000000" fill="#FFFFFF"/>
			<path d="M410.216,382.958c-0.899-1.126-1.921-2.148-3.047-3.047h0l-85.159-85.159c-3.897,5.112-8.083,9.996-12.539,14.629     c-4.633,4.456-9.517,8.642-14.629,12.539l85.159,85.159c6.661,8.343,18.824,9.707,27.167,3.047S416.876,391.301,410.216,382.958z     " data-original="#000000" class="active-path" data-old_color="#000000" fill="#FFFFFF"/>
		</g>
	</g>
</g></g> </svg>
