<?xml version="1.0" standalone="no"?>
<!DOCTYPE svg PUBLIC "-//W3C//DTD SVG 20010904//EN"
 "http://www.w3.org/TR/2001/REC-SVG-20010904/DTD/svg10.dtd">
<svg version="1.0" xmlns="http://www.w3.org/2000/svg"
 width="2002.000000pt" height="777.000000pt" viewBox="0 0 2002.000000 777.000000"
 preserveAspectRatio="xMidYMid meet">
<metadata>
Created by potrace 1.16, written by Peter Selinger 2001-2019
</metadata>
<g transform="translate(0.000000,777.000000) scale(0.100000,-0.100000)"
fill="#000000" stroke="none">
<path d="M20 5620 c0 -1455 -3 -2150 -10 -2150 -7 0 -10 -299 -8 -918 l3 -917
35 -65 c179 -333 914 -652 2105 -914 1470 -322 3573 -547 5870 -626 1206 -42
2788 -42 3975 0 3436 121 6257 546 7435 1120 278 136 458 277 535 420 l35 65
3 917 c1 591 6 918 12 918 7 0 10 753 10 2150 l0 2150 -10000 0 -10000 0 0
-2150z"/>
</g>
</svg>
