<?xml version="1.0"?>
<svg xmlns="http://www.w3.org/2000/svg" id="Line" width="512" height="512" viewBox="0 0 64 64"><path d="M38.232,53v1a3,3,0,0,0,3,3H60a3,3,0,0,0,2.683-4.342L58.35,44l4.329-8.658A3,3,0,0,0,60,31H48.232V48a5.006,5.006,0,0,1-5,5Z" style="fill:#c4a2fc"/><path d="M46.232,62a1,1,0,0,0-1-1H36.646l-2.707-2.707a1.028,1.028,0,0,0-.26-.188l-5.447-2.723V51h15a3,3,0,0,0,3-3V28a3,3,0,0,0-3-3h-16a1,1,0,0,0-1,1V55.586L20.818,61H18.232a1,1,0,0,0,0,2h27A1,1,0,0,0,46.232,62Z" style="fill:#c4a2fc"/><path d="M2,51H50a1,1,0,0,0,.9-1.447l-15-30a1.041,1.041,0,0,0-1.789,0L29,29.764l-8-16V9H32a1,1,0,0,0,.708-1.707L30.416,5l2.293-2.293A1,1,0,0,0,32,1H20a1,1,0,0,0-1,1V13.764L1.107,49.553A1,1,0,0,0,2,51ZM38.62,49,31.885,35.531l2.21-2.21,2.613,1.958a2.007,2.007,0,0,0,2.614-.185l1.4-1.406L48.383,49ZM35,22.236,39.785,31.8l-1.877,1.876L35.3,31.721a2.008,2.008,0,0,0-2.614.185l-1.739,1.739L30.12,32ZM28.294,5.707,29.587,7H21V3h8.586L28.294,4.293A1,1,0,0,0,28.294,5.707ZM20,16.236l7.846,15.692c-2.074,2.9-2.11,3.686-2.971,3.733-1.409.085-2.179-3.537-4.875-3.537-2.763,0-3.465,3.614-4.875,3.537-.858-.046-.867-.786-2.97-3.733ZM11.126,33.988c1.232,1.517,1.661,3.55,3.894,3.67,2.753.157,3.585-3.534,4.981-3.534,1.368,0,2.141,3.7,4.982,3.534,2.226-.12,2.693-2.19,3.894-3.67L36.383,49H3.62Z" style="fill:#151a6a"/></svg>
