<svg id="Capa_1" enable-background="new 0 0 496.3 496.3" height="512" viewBox="0 0 496.3 496.3" width="512" xmlns="http://www.w3.org/2000/svg"><g><g><path d="m264.433 184.948c-.434 0-.874-.038-1.315-.116-4.079-.722-6.8-4.613-6.079-8.692l7.309-41.311 3.791-23.464c.66-4.089 4.514-6.868 8.6-6.208 4.089.66 6.869 4.511 6.208 8.6l-3.799 23.518c-.006.037-.012.074-.019.111l-7.319 41.367c-.644 3.637-3.808 6.195-7.377 6.195z" fill="#8ebac5"/></g><g><path d="m193.395 376.947c-.86 0-1.735-.149-2.589-.463-3.887-1.431-5.879-5.741-4.448-9.629l6.58-17.879 11.043-32.385c1.337-3.92 5.597-6.016 9.519-4.678 3.921 1.337 6.015 5.599 4.678 9.519l-11.072 32.469c-.02.057-.04.113-.06.17l-6.611 17.965c-1.117 3.032-3.986 4.911-7.04 4.911z" fill="#8ebac5"/></g><g><path d="m326.312 248.455c-3.542 0-6.693-2.521-7.365-6.128-.758-4.072 1.928-7.988 6-8.746l33.976-6.327c.096-.018.192-.034.288-.048l19.709-2.882c4.1-.602 7.907 2.237 8.506 6.336.6 4.099-2.237 7.907-6.336 8.506l-19.565 2.861-33.832 6.3c-.464.086-.926.128-1.381.128z" fill="#8ebac5"/></g><g><g><g id="XMLID_436_"><g><path d="m396.6 278.14c6.9 2.53 10.45 10.19 7.91 17.09l-7.66 20.87c-2.53 6.91-10.19 10.45-17.09 7.92-6.15-2.26-9.62-8.58-8.52-14.81l-23.34-6.78c-4.97 9.29-11.2 17.8-18.47 25.31l13.75 20.33c5.44-2.36 11.98-.88 15.8 4.01 4.53 5.79 3.5 14.16-2.3 18.69l-17.51 13.69c-5.8 4.53-14.17 3.51-18.7-2.29-4.03-5.16-3.65-12.35.57-17.07l-16.25-18.07c-10.14 5.88-21.28 10.23-33.11 12.73l.05 24.52c5.83 1.08 10.43 5.96 10.86 12.14.52 7.34-5 13.71-12.34 14.23l-22.17 1.58c-7.34.52-13.71-5.01-14.23-12.35-.47-6.53 3.87-12.29 10-13.84l-3.38-24.08c-23.43-1.58-44.89-10.28-62.25-23.97l-34.96-46.56c-4.06-10.08-6.72-20.87-7.72-32.14l-24.37-2.89c-1.77 5.66-7.16 9.64-13.36 9.34-7.34-.36-13.01-6.61-12.65-13.96l1.09-22.2c.36-7.35 6.61-13.01 13.96-12.65 6.54.32 11.74 5.31 12.54 11.59l24.31-.48c1.98-10.48 5.4-20.45 10.05-29.69l-19.16-15.29c-4.49 3.87-11.17 4.41-16.27.89-6.06-4.19-7.57-12.48-3.39-18.53l12.64-18.29c4.18-6.06 12.48-7.57 18.53-3.39 5.39 3.72 7.17 10.71 4.54 16.47l20.92 12.41c8.02-8.72 17.4-16.17 27.79-22.03l-7.36-23.4c-5.88.71-11.72-2.58-13.99-8.35-2.68-6.85.69-14.58 7.54-17.26l20.7-8.11c6.85-2.69 14.58.69 17.26 7.54 2.39 6.1-.03 12.88-5.42 16.19l10.4 21.96c8.44-2.01 17.25-3.08 26.31-3.08 25.81 0 49.6 8.66 68.63 23.22l35.64 46.04c5.67 13.48 8.8 28.28 8.8 43.81 0 8.2-.88 16.2-2.54 23.9l22.39 10.02c3.37-4.88 9.71-7.07 15.53-4.93z" fill="#a8d3d8"/></g></g></g><g><path d="m238.137 219.183c-.588-3.25-1.794-6.399-3.67-9.29-8.375-12.911-26.829-15.812-41.22-6.478-14.39 9.334-19.267 27.367-10.892 40.279 2.781 4.288 6.678 7.465 11.165 9.463l23.176 4.905 24.721-16.85z" fill="#8ebac5"/><circle cx="305.526" cy="248.455" fill="#8ebac5" r="21.951"/><g><path d="m271.73 384.28-.028-13.743c-53.692-14.806-93.127-63.988-93.127-122.387 0-48.513 27.223-90.675 67.216-112.046-8.228.17-16.248 1.222-23.95 3.056l-10.4-21.96c5.39-3.31 7.81-10.09 5.42-16.19-2.68-6.85-10.41-10.23-17.26-7.54l-20.7 8.11c-6.85 2.68-10.22 10.41-7.54 17.26 2.27 5.77 8.11 9.06 13.99 8.35l7.36 23.4c-10.39 5.86-19.77 13.31-27.79 22.03l-20.921-12.41c2.63-5.76.85-12.75-4.54-16.47-6.05-4.18-14.35-2.67-18.53 3.39l-12.64 18.29c-4.18 6.05-2.67 14.34 3.39 18.53 5.1 3.52 11.78 2.98 16.27-.89l19.16 15.29c-4.65 9.24-8.07 19.21-10.05 29.69l-24.31.48c-.8-6.28-6-11.27-12.54-11.59-7.35-.36-13.6 5.3-13.96 12.65l-1.09 22.2c-.36 7.35 5.31 13.6 12.65 13.96 6.2.3 11.59-3.68 13.36-9.34l24.37 2.89c1 11.27 3.66 22.06 7.72 32.14l34.96 46.56c17.36 13.69 38.82 22.39 62.25 23.97l3.38 24.08c-6.13 1.55-10.47 7.31-10 13.84.52 7.34 6.89 12.87 14.23 12.35l22.17-1.58c7.34-.52 12.86-6.89 12.34-14.23-.43-6.18-5.03-11.06-10.86-12.14z" fill="#8ebac5"/></g><g id="XMLID_438_"><g><path d="m248.15 0c137.05 0 248.15 111.1 248.15 248.15s-111.1 248.15-248.15 248.15-248.15-111.1-248.15-248.15 111.1-248.15 248.15-248.15zm-3.38 443.42c112.04 1.9 203.28-91.79 198.49-203.74-1.2-28.06-8.32-54.58-20.14-78.36-1.84-3.69-6.57-4.81-9.85-2.31l-294.93 224.58c-3.29 2.5-3.45 7.37-.37 10.13 33.77 30.22 78.11 48.87 126.8 49.7zm133.19-330.71c3.29-2.5 3.45-7.37.37-10.13-33.77-30.22-78.11-48.87-126.8-49.7-112.04-1.9-203.28 91.79-198.49 203.75 1.2 28.05 8.32 54.57 20.14 78.35 1.84 3.69 6.57 4.81 9.85 2.31z" fill="#f37c7c"/></g></g></g><circle cx="274.786" cy="315.186" fill="#8ebac5" r="15.508"/></g></g></svg>