<svg id="Capa_1" enable-background="new 0 0 511.962 511.962" height="512" viewBox="0 0 511.962 511.962" width="512" xmlns="http://www.w3.org/2000/svg"><g><g fill="#79d6de"><path d="m255.982 266.389c-37.94 0-73.61 14.774-100.438 41.602-7.631 7.632-11.834 17.778-11.834 28.57-.001 10.794 4.203 20.941 11.834 28.571 7.631 7.633 17.779 11.837 28.574 11.837 10.793 0 20.939-4.202 28.571-11.834 11.564-11.564 26.939-17.932 43.292-17.932s31.729 6.368 43.291 17.932c7.631 7.632 17.778 11.835 28.571 11.835h.001c10.793 0 20.941-4.204 28.574-11.837 15.754-15.754 15.754-41.388 0-57.143-26.826-26.826-62.495-41.601-100.436-41.601z"/><path d="m255.981 164.759c-65.088 0-126.279 25.345-172.303 71.368-15.752 15.755-15.752 41.39.001 57.144 7.631 7.632 17.778 11.834 28.572 11.834s20.94-4.202 28.572-11.834c30.759-30.758 71.656-47.697 115.157-47.697s84.397 16.939 115.156 47.697c7.631 7.632 17.778 11.835 28.572 11.836h.003c10.792 0 20.939-4.204 28.567-11.835 7.633-7.631 11.837-17.778 11.837-28.572s-4.204-20.941-11.836-28.573c-46.02-46.023-107.211-71.368-172.298-71.368z"/><path d="m500.146 164.263c-32.956-32.957-71.391-58.477-114.234-75.85-41.375-16.778-85.09-25.285-129.93-25.285-44.842 0-88.557 8.507-129.931 25.285-42.844 17.373-81.278 42.893-114.235 75.849-15.754 15.753-15.755 41.388.001 57.148 7.632 7.63 17.779 11.832 28.572 11.832s20.939-4.202 28.572-11.834c49.954-49.954 116.372-77.466 187.018-77.466 70.648 0 137.066 27.512 187.021 77.467 7.632 7.631 17.779 11.834 28.573 11.834h.002c10.791 0 20.939-4.203 28.572-11.836 15.753-15.756 15.753-41.391-.001-57.144z"/><path d="m255.981 368.019c-10.793 0-20.941 4.203-28.574 11.835-15.754 15.755-15.754 41.39.002 57.148 7.632 7.63 17.779 11.832 28.571 11.832 10.794 0 20.941-4.203 28.572-11.835 7.632-7.63 11.835-17.777 11.836-28.57.001-10.794-4.202-20.942-11.835-28.575-7.632-7.632-17.778-11.835-28.572-11.835z"/></g><g fill="#60a9b0"><path d="m255.981 347.204c16.354 0 31.729 6.368 43.291 17.932 7.631 7.632 17.778 11.835 28.571 11.835h.001c10.793 0 20.941-4.204 28.574-11.837 15.754-15.754 15.754-41.388 0-57.143-26.827-26.827-62.496-41.602-100.437-41.602-.004 0-.007 0-.011 0v80.815z"/><path d="m255.981 245.574c43.501 0 84.397 16.939 115.156 47.697 7.631 7.632 17.778 11.835 28.572 11.836h.003c10.792 0 20.939-4.204 28.567-11.835 7.633-7.631 11.837-17.778 11.837-28.572s-4.204-20.941-11.836-28.573c-46.022-46.023-107.213-71.367-172.3-71.367-.004 0-.007 0-.01 0v80.814z"/><path d="m500.146 164.263c-32.956-32.957-71.391-58.477-114.234-75.85-41.375-16.778-85.09-25.285-129.93-25.285-.004 0-.007 0-.01 0v80.813h.008c70.648 0 137.066 27.512 187.021 77.467 7.632 7.631 17.779 11.834 28.573 11.834h.002c10.791 0 20.939-4.203 28.572-11.836 15.752-15.755 15.752-41.39-.002-57.143z"/><path d="m255.98 448.833c10.794 0 20.941-4.203 28.572-11.835 7.632-7.63 11.835-17.777 11.836-28.57.001-10.794-4.202-20.942-11.835-28.575-7.633-7.631-17.779-11.834-28.572-11.834-.004 0-.007 0-.01 0v80.814z"/></g></g></svg>