<svg xmlns="http://www.w3.org/2000/svg" viewBox="0 0 500 500"><g id="freepik--Floor--inject-2"><ellipse id="freepik--floor--inject-2" cx="249.99" cy="350.78" rx="211.82" ry="116.89" style="fill:#008A76"></ellipse><ellipse id="freepik--floor--inject-2" cx="249.99" cy="350.78" rx="211.82" ry="116.89" style="opacity:0.1"></ellipse></g><g id="freepik--Shadow--inject-2"><path id="freepik--shadow--inject-2" d="M68.14,340C59.86,344.52,53,359.14,69.8,362c5.39.92,15.09.15,26.18-1.86,7.85-1.43,14.88-1.25,21.82,2.69,5.15,2.93,11.38,6.52,18.24,9.6,41.28,18.56,52.05,1,52.05,1,3.39,1.32,8.26.49,14.17,1.73,6.92,1.44,17.86,11,36.15,8.5s15.26-15-9.88-21.79-97-30.28-118.74-33.25S68.14,340,68.14,340Z" style="opacity:0.2"></path></g><g id="freepik--Flowers--inject-2"><g id="freepik--flowers--inject-2"><path d="M354.78,373.94l-.66.37c-7.27,4-13.56,2.72-16,.12,0,0-2.62-11.85,7.33-18.77s19.42-5.37,19.42-5.37S367.07,366.64,354.78,373.94Z" style="fill:#008A76"></path><path d="M354.78,373.94l-.66.37c-7.27,4-13.56,2.72-16,.12,0,0-2.62-11.85,7.33-18.77s19.42-5.37,19.42-5.37S367.07,366.64,354.78,373.94Z" style="opacity:0.25"></path><path d="M354.78,373.94l-.66.37c-7.27,4-13.56,2.72-16,.12,4.75-14.95,26.75-24.14,26.75-24.14S367.07,366.64,354.78,373.94Z" style="opacity:0.2"></path><path d="M335.51,383s-5.06,10.48,3.45,16.85S361.58,404,361.58,404s1.56-14.64-9.05-21.19A15.82,15.82,0,0,0,335.51,383Z" style="fill:#008A76"></path><path d="M335.51,383s-5.06,10.48,3.45,16.85S361.58,404,361.58,404s1.56-14.64-9.05-21.19A15.82,15.82,0,0,0,335.51,383Z" style="opacity:0.25"></path><path d="M339,399.86c8.37,6.26,22.62,4.13,22.62,4.13-6-12.94-26.07-21-26.07-21S330.45,393.49,339,399.86Z" style="opacity:0.2"></path><path d="M304.85,360.14a4.17,4.17,0,0,0-.69,1.07,4.84,4.84,0,0,0,0,3.84c-.11-.24-1.42,1.05-1.51,1.18a3.22,3.22,0,0,0-.56,2.08c.16,1.66,1.57,3.12,2.78,4.12,3.49,2.88,9.42,4.65,13.93,4.62a28.28,28.28,0,0,1-7.83.11c-2.8-.33-5.7-1.64-8.51-1.9a2.56,2.56,0,0,0-3,1.95,2.8,2.8,0,0,0,1.29,3.18,4,4,0,0,0-3.47,1.49,3.29,3.29,0,0,0,.32,3.73,5.38,5.38,0,0,0,3.46,1.82,15.68,15.68,0,0,0,4-.05c-1.09,1-.77,3,.34,4a5.72,5.72,0,0,0,4.23,1.15c4.81-.31,8.92-3.45,12.69-6.46a8,8,0,0,0-1.33,6.8,8.62,8.62,0,0,0,4.27,5.08,3,3,0,0,0,2.89.1,14.62,14.62,0,0,1,1.46-1.06,2.34,2.34,0,0,1,1.69,0c1.49.47,3,1.11,4.42-.07a2.84,2.84,0,0,0,1-2,6.82,6.82,0,0,0,4.76-1.29c2.07-1.51,1.79-3.66.08-5.43s-4.26-3-5.93-5.19a19.08,19.08,0,0,0,9.8,3.83c3.62.19,7.24.44,10.73-.87a5.58,5.58,0,0,0,2.84-2,2.38,2.38,0,0,0-.43-3.16,7.36,7.36,0,0,0,2.75-3.11,3.84,3.84,0,0,0-.52-4,3.1,3.1,0,0,0-3.64-.6c1.07-1.14.51-3.19-.82-4a5,5,0,0,0-4.5,0,30.16,30.16,0,0,0-4,2.48,15.71,15.71,0,0,1-8.65,2.57A15.74,15.74,0,0,0,345.06,363a8,8,0,0,0-.29-3.29,3.76,3.76,0,0,0-2.19-2.35,2.49,2.49,0,0,0-2.91,1c-.35-2.79-2.71-5.76-5.8-4.74a4.93,4.93,0,0,0-3,3.23c.19-.62-1.61-1-1.94-1a3,3,0,0,0-2.34,1,4.71,4.71,0,0,0-1,3.34,17.75,17.75,0,0,0,.66,3.52,31,31,0,0,1,1.16,9.52,24.3,24.3,0,0,1-5.37-9.28,36.91,36.91,0,0,0-1.21-3.54c-1.17-2.6-4.19-4.9-7.14-3.83a4.79,4.79,0,0,0-3.08,3.91,3.45,3.45,0,0,0-3.4-1.51A3.94,3.94,0,0,0,304.85,360.14Z" style="fill:#455a64"></path><path d="M350.43,377.81a14.06,14.06,0,0,1-5,1.13,25.43,25.43,0,0,1-5.23-.21c-1.62-.22-3.25-.47-4.85-.8-.79-.16-1.56-.35-2.33-.57s-1.35-.47-2-.61c.18-.21.35-.44.52-.65a13.78,13.78,0,0,0,2.81-5.16,27.14,27.14,0,0,0,1.09-4.35c.21-1.28.66-3,0-4.22-.06-.13-.29-.28-.35-.05-.19.61-.27,1.22-.49,1.83s-.45,1.29-.63,1.94a38.7,38.7,0,0,1-1.38,4.1,20.75,20.75,0,0,1-1.74,3.5,15.46,15.46,0,0,1-1.11,1.45,5.47,5.47,0,0,0-.82,1.15,1,1,0,0,0-.65.09l-.26.14c-.21-.06-.42-.09-.59-.14-.41-.1-.82-.2-1.23-.32a13.24,13.24,0,0,1-2.46-1,23.1,23.1,0,0,1-3.95-2.54,18.78,18.78,0,0,1-3-3.26c-.62-.8-1.2-1.62-1.79-2.43a6.61,6.61,0,0,1-1.22-2c0-.16-.21-.18-.24,0a3.09,3.09,0,0,0,.38,1.65c.39.83.83,1.65,1.25,2.47a15.33,15.33,0,0,0,3.25,4.41,20.19,20.19,0,0,0,4.49,3.18,14.44,14.44,0,0,0,2.62,1l.35.11c-.62.34-1.24.67-1.89,1a46.13,46.13,0,0,1-4.43,1.8,44.33,44.33,0,0,1-10.34,2.08c-.25,0-.13.54.08.57,6.34,1.05,13-1.06,18.61-4.23a15.61,15.61,0,0,0,.68,5.51,19.7,19.7,0,0,0,1.44,3.64c.31.59.63,1.18,1,1.75a15.42,15.42,0,0,1,1,1.61c.07.16.21,0,.21-.09a7.07,7.07,0,0,0-.61-2.67c-.45-1.26-.93-2.52-1.29-3.81a14.9,14.9,0,0,1-.44-7.14s0,0,0,0a.91.91,0,0,0,.08.13,4.88,4.88,0,0,0,2.19,1,24.19,24.19,0,0,0,2.94.7c1.74.31,3.5.61,5.26.75a25.27,25.27,0,0,0,5.36-.07,13,13,0,0,0,2.67-.64,11.49,11.49,0,0,0,2.25-1.31C350.72,378.15,350.64,377.71,350.43,377.81Z" style="fill:#37474f"></path><path d="M331.29,375.9c2.4,1.09,2.85,3.05,1,4.38s-5.31,1.52-7.72.43-2.84-3-1-4.38S328.89,374.81,331.29,375.9Z" style="fill:#f0997a"></path><path d="M329.43,380.06c-2.92.57-6-.61-7-2.05-.12,1,.62,2,2.12,2.7,2.41,1.09,5.86.9,7.72-.43a2.07,2.07,0,0,0,.77-3C332.84,378.38,331.85,379.6,329.43,380.06Z" style="opacity:0.05"></path><g id="freepik--flowers--inject-2"><path d="M393.84,378.17s-.43-3.18-3-3.37c0,0-2.07-.22-3,3.05,0,0-2.59-1.1-5.89,1a3.69,3.69,0,0,0,3,3.93s-1.85,1.61-.72,5.09c0,0,5.24,1.39,6.3-1.88,0,0,.63,2.82,5.65,2.51a4.8,4.8,0,0,0-.35-5.7s3.52-.33,3.93-3C399.78,379.86,397.14,376,393.84,378.17Z" style="fill:#fafafa"></path><path d="M390.78,378.86a3.51,3.51,0,0,0-3.64,2.59s.12,1.86,3.33,1.93,3.59-1.82,3.59-1.82A3.16,3.16,0,0,0,390.78,378.86Z" style="fill:#f0997a"></path><path d="M399.89,360.57s-1.26-2.2-3.12-2.35a5.1,5.1,0,0,0-1.62,3.38,4.66,4.66,0,0,0-4,1.23,4.31,4.31,0,0,0,2.74,2.8,5.74,5.74,0,0,0,.4,4.2s3.56.05,4.63-3c0,0,1.43,1.88,5,1a3.72,3.72,0,0,0-1.58-4.22s2.15-1.43,1.75-3.56A5.53,5.53,0,0,0,399.89,360.57Z" style="fill:#fafafa"></path><path d="M398,362a2.59,2.59,0,0,0-2.38,2.3s.29,1.35,2.65,1.05,2.43-1.74,2.43-1.74A2.34,2.34,0,0,0,398,362Z" style="fill:#f0997a"></path><path d="M381.28,363.08s-.82-2-2.11-1.21-.75,2,.43,2.25c0,0-2.45,1-1.67,2.26s2.84-.24,3.26-1c0,0,.59,2,2.28,1.17s-.15-2.47-.15-2.47,2.61-1.21,1.08-2.34S381.28,363.08,381.28,363.08Z" style="fill:#fafafa"></path><path d="M408.61,374.23s.08-2.15-1.42-2-1.52,1.54-.54,2.22c0,0-2.62-.13-2.45,1.37s2.68,1,3.37.47c0,0-.3,2.08,1.59,2s.89-2.32.89-2.32,2.87,0,1.94-1.68S408.61,374.23,408.61,374.23Z" style="fill:#fafafa"></path><path d="M373.14,375.75s-1.86-2.17-.58-2.81,1.95,1.3,1.95,1.3,1.21-1.63,1.9-.56-.83,2.33-.83,2.33,1.86.86.88,1.89-2.31-.42-2.31-.42-.6,1.77-1.72,1.36S371.87,376.38,373.14,375.75Z" style="fill:#fafafa"></path></g><g id="freepik--flowers--inject-2"><path d="M317.71,412.72s-1.88-2.86-4.39-2.91a6.83,6.83,0,0,0-1.91,4.68,6.31,6.31,0,0,0-5.25,2,5.84,5.84,0,0,0,3.93,3.55,7.7,7.7,0,0,0,.87,5.61s4.8-.23,6-4.4c0,0,2.09,2.41,6.82.9a5,5,0,0,0-2.47-5.55s2.78-2.1,2.07-4.94A7.52,7.52,0,0,0,317.71,412.72Z" style="fill:#fafafa"></path><path d="M315.22,414.85a3.49,3.49,0,0,0-3,3.28s.5,1.8,3.66,1.2,3.12-2.54,3.12-2.54A3.14,3.14,0,0,0,315.22,414.85Z" style="fill:#f0997a"></path><path d="M283.7,405.22s-1.6-2.2-3.59-2.15a5.44,5.44,0,0,0-1.34,3.78,5,5,0,0,0-4.09,1.78,4.61,4.61,0,0,0,3.25,2.66,6.14,6.14,0,0,0,.89,4.43s3.8-.37,4.59-3.72c0,0,1.74,1.84,5.44.46a4,4,0,0,0-2.17-4.31s2.13-1.76,1.47-4A6,6,0,0,0,283.7,405.22Z" style="fill:#fafafa"></path><path d="M281.81,407a2.78,2.78,0,0,0-2.28,2.72s.47,1.4,3,.81,2.38-2.13,2.38-2.13A2.48,2.48,0,0,0,281.81,407Z" style="fill:#f0997a"></path><path d="M300.12,405.11s-1-2.74-2.76-1.79-1.15,2.68.42,3.06c0,0-3.36,1.12-2.41,2.91s3.84-.1,4.46-1.05c0,0,.65,2.76,3,1.75s0-3.34,0-3.34,3.59-1.43,1.62-3.06S300.12,405.11,300.12,405.11Z" style="fill:#fafafa"></path><path d="M291.75,423.3s-3.78.78-3.7-1.14,2.81-1.45,2.81-1.45-1.13-2.5.58-2.62,2.21,2.5,2.21,2.5,2.22-1.63,2.8.2-2,2.45-2,2.45,1.7,1.87.47,2.92S291.66,425.21,291.75,423.3Z" style="fill:#fafafa"></path></g></g></g><g id="freepik--Plants--inject-2"><g id="freepik--plants--inject-2"><path d="M83.21,302,92,297.9s3.59-17.79,3.42-31.82C95.18,246.36,84.56,221.75,69,226s4.73,26,8.2,43S83.21,302,83.21,302Z" style="fill:#008A76"></path><path d="M83.21,302,92,297.9s3.59-17.79,3.42-31.82C95.18,246.36,84.56,221.75,69,226s4.73,26,8.2,43S83.21,302,83.21,302Z" style="opacity:0.30000000000000004"></path><path d="M87.79,300.36h0a.52.52,0,0,1-.44-.57c5.19-43.31-14.57-67-14.76-67.25a.51.51,0,0,1,.05-.72.52.52,0,0,1,.72.05c.2.24,20.25,24.29,15,68A.51.51,0,0,1,87.79,300.36Z" style="fill:#fff"></path><path d="M77.67,304.59l6.27-2.93s2.07-12.25-2.7-27.74c-4.14-13.49-16.27-25.42-23-23.71s-7,6.38-4.22,11.54S75.26,280.22,77.67,304.59Z" style="fill:#008A76"></path><path d="M77.67,304.59l6.27-2.93s2.07-12.25-2.7-27.74c-4.14-13.49-16.27-25.42-23-23.71s-7,6.38-4.22,11.54S75.26,280.22,77.67,304.59Z" style="opacity:0.15"></path><path d="M80.93,303.55h0a.5.5,0,0,1-.46-.55c2.47-27.46-21.73-48.23-22-48.44a.51.51,0,0,1,.66-.78c.25.21,24.85,21.33,22.33,49.31A.51.51,0,0,1,80.93,303.55Z" style="fill:#fff"></path></g><g id="freepik--plants--inject-2"><path d="M410.61,300.38l-8.3-4.8s-4.95-20.55-3-39c2.77-26,16.76-37.31,26.38-33.53,6.41,2.52,8.39,9.8-2.37,25.28C417,257.44,409.19,276.46,410.61,300.38Z" style="fill:#008A76"></path><g style="opacity:0.30000000000000004"><path d="M410.61,300.38l-8.3-4.8s-4.95-20.55-3-39c2.77-26,16.76-37.31,26.38-33.53,6.41,2.52,8.39,9.8-2.37,25.28C417,257.44,409.19,276.46,410.61,300.38Z"></path></g><path d="M407.17,290.28h.08a.58.58,0,0,0,.46-.67c-4.56-24,3.82-50.91,14.19-62.12a.58.58,0,0,0,0-.81.59.59,0,0,0-.82,0c-10.56,11.42-19.09,38.79-14.47,63.11A.56.56,0,0,0,407.17,290.28Z" style="fill:#fff"></path><path d="M432.37,312.94c1.31.67,4.8-2.32,5.78-3a12.22,12.22,0,0,0,3.81-4.85,11.44,11.44,0,0,0,.67-6.91,28.33,28.33,0,0,0-1.05-3.59l-1.2-3.49a8.86,8.86,0,0,1-.69-3.54c.18-2.43,2.24-4.23,4.12-5.79,2.08-1.73,4.22-4,4.06-6.89a10.24,10.24,0,0,0-2.87-6c-1.48-1.69-3.21-3.17-4.57-5a7.14,7.14,0,0,1-1.69-4.45,7.53,7.53,0,0,1,.84-2.87c.94-1.95,2.2-3.75,2.81-5.83s.38-4.6-1.29-6c-1.36-1.13-3.31-1.2-5.07-1a11.44,11.44,0,0,0-4.57,1.88c-4.5,2.8-6.86,8.41-11.66,10.63a48.8,48.8,0,0,1-5.86,1.75c-1.95.62-3.91,1.73-4.73,3.6-1.62,3.69,1.94,8,.87,11.83-.95,3.44-4.17,4.9-5.85,8a7.23,7.23,0,0,0-.64,4.47,21.17,21.17,0,0,0,2.24,7.38,66.46,66.46,0,0,0,4.43,6.82S432.17,312.84,432.37,312.94Z" style="fill:#008A76"></path><g style="opacity:0.15"><path d="M432.37,312.94c1.31.67,4.8-2.32,5.78-3a12.22,12.22,0,0,0,3.81-4.85,11.44,11.44,0,0,0,.67-6.91,28.33,28.33,0,0,0-1.05-3.59l-1.2-3.49a8.86,8.86,0,0,1-.69-3.54c.18-2.43,2.24-4.23,4.12-5.79,2.08-1.73,4.22-4,4.06-6.89a10.24,10.24,0,0,0-2.87-6c-1.48-1.69-3.21-3.17-4.57-5a7.14,7.14,0,0,1-1.69-4.45,7.53,7.53,0,0,1,.84-2.87c.94-1.95,2.2-3.75,2.81-5.83s.38-4.6-1.29-6c-1.36-1.13-3.31-1.2-5.07-1a11.44,11.44,0,0,0-4.57,1.88c-4.5,2.8-6.86,8.41-11.66,10.63a48.8,48.8,0,0,1-5.86,1.75c-1.95.62-3.91,1.73-4.73,3.6-1.62,3.69,1.94,8,.87,11.83-.95,3.44-4.17,4.9-5.85,8a7.23,7.23,0,0,0-.64,4.47,21.17,21.17,0,0,0,2.24,7.38,66.46,66.46,0,0,0,4.43,6.82S432.17,312.84,432.37,312.94Z"></path></g><path d="M419.66,306.32h0a.57.57,0,0,0,.53-.62c-2.1-22.8,7.39-48.57,14.85-56.29a.58.58,0,1,0-.83-.8c-7.61,7.87-17.3,34.07-15.17,57.19A.59.59,0,0,0,419.66,306.32Z" style="fill:#fff"></path><path d="M421.92,278.2a.47.47,0,0,0,.17,0,77.57,77.57,0,0,1,16.45-3.51.58.58,0,0,0,.52-.63.56.56,0,0,0-.63-.52,78.28,78.28,0,0,0-16.73,3.58.57.57,0,0,0,.22,1.11Z" style="fill:#fff"></path></g></g><g id="freepik--Character--inject-2"><g id="freepik--character--inject-2"><path d="M243.84,370.15c-.63,1.32-7.45,5.17-16.65,4.54a38.26,38.26,0,0,1-19-6.65c-3.5-2.33-7.15-2.76-11.71-3a25.14,25.14,0,0,1-9.62-2.48,4.68,4.68,0,0,1-2.25-1.9,3,3,0,0,1,.08-2.58,4.63,4.63,0,0,1,1.83-1.89c2.62-1.57,5.2-.38,7.92.13l6.81,1.29,18.55,3.5,17.38,3.28,7,1.32A6.08,6.08,0,0,1,243.84,370.15Z" style="fill:#263238"></path><path d="M191.91,336c.23-.72,6.21-26.05,6.21-26.05l22.51,7.15c.52,0-10.25,26.24-10,26.24s-6.8,4.85-13.72,2.63S191.91,336,191.91,336Z" style="fill:#ffa8a7"></path><path d="M244.09,365.7a5.58,5.58,0,0,1-2.45,2.83c-3.55,2.1-12.89,4.35-22.68,1.58-5.33-1.52-11.26-7.22-18.27-7.76a52.65,52.65,0,0,1-7.18-1.05c-2.3-.51-5-.87-7-2.13-1.71-1-2.39-3.37-2.38-5.29a16.15,16.15,0,0,1,1.38-5.81,36.39,36.39,0,0,0,2-5.67,19.54,19.54,0,0,1,1-4.24c.62-1.32,2-2.45,3.42-2.18-.32,2.28,1,6.62,3.93,6.36,1.37-.13,2.27-1.45,3.46-2.14a6.71,6.71,0,0,1,4.6-.44,21.29,21.29,0,0,0,4.66.71c2-.08,2.57-.14,3.79-1.73.39,2.42,2.66,4.54,4.35,6.39a23.68,23.68,0,0,0,6.07,4.22c3,1.6,6,2.86,9.07,4.26s7.36,2.29,9.84,4A6.94,6.94,0,0,1,244.09,365.7Z" style="fill:#37474f"></path><path d="M101.09,305.4l14.36,6.38L102,331.88l-12.93-6.47a12.93,12.93,0,0,1-3-9.94C86.59,309.1,96.22,299.94,101.09,305.4Z" style="fill:#ffa8a7"></path><path d="M85.65,351.82c-3.16,1.68-9.87,1.22-15.32-2.37s-6.75-11.7-4.78-17.6c2.39-7.16,6.6-10.65,8.17-14.93s1.5-10.56,3.5-14.29c1.9-3.53,6.43-5.93,9-6.54a7,7,0,0,1,5.92,1.4l1.57,1.27C83.44,310.42,84,330.7,85.65,351.82Z" style="fill:#263238"></path><path d="M101.09,305.4a4.54,4.54,0,0,0-2.53-3.55,23.67,23.67,0,0,1-3.48-2.36c-9.79-5.75-16.23,5.33-16.51,13.26s-8.66,12.94-10.41,21c-1.22,5.64-.38,13.24,7.36,16.88,6.76,3.19,11.07,3.11,14-.36a5.21,5.21,0,0,0,.89-2.72,24.19,24.19,0,0,0,.14-3.9c0-1.41-.15-2.82-.3-4.21-.05-.43-.08-.86-.15-1.28-.16-.95.64-1.84,1.18-2.57q2-2.73,4-5.5c.24-.34.64-.91.5-1.3l-.54-.33a16,16,0,0,1-3.07-2.24,4.07,4.07,0,0,1-1.34-2.53,10.51,10.51,0,0,1,.4-2.79c.29-1.32.34-2.85-.58-3.84-.36-.38-.82-.64-1.21-1a1.6,1.6,0,0,1-.64-1.35,2.28,2.28,0,0,1,.86-1.19,17,17,0,0,0,2.63-3c.75-1.06,1.37-2.22,2.16-3.25a6.78,6.78,0,0,1,3-2.42A3.63,3.63,0,0,1,101.09,305.4Z" style="fill:#37474f"></path><path d="M232.32,251.26c-13.93-3.12-38.8-9.13-38.8-9.13l-6.31-19c-16.51,5.46-36.19,0-47.88-9.27l-2.24,8.64s-7,12-9.81,18.78c-3.53,8.42-4.88,22-3.12,42.89,1.06,12.61,3.73,31.25,3.73,31.25l-21.16-7.49c-2.06.44-6.12,3.29-7.88,10-3.12,12,1.87,15.52,1.87,15.52s7.45,3.79,23.21,13.19c16.08,9.57,24.7,10.73,31.63,7.56,4.93-2.26,10.7-9.52,10.69-27.59,0-14.94,1.17-42.25,1.17-42.25L203,287.86s-3.57,11.46-4.78,16.64S195.75,317.83,194,326c0,0,10.12,7.46,21.76,5.69,0,0,26.27-42.86,29.89-55.31S245.81,254.29,232.32,251.26Z" style="fill:#455a64"></path><path d="M167.42,284.35v-5.14A33.88,33.88,0,0,0,185,268.85s-.62,9.81-13.5,13.43l16.63,4.12Z" style="fill:#37474f"></path><path d="M203,287.86a30,30,0,0,1,13.37-15.73s-11.84,2-17.16,15.36Z" style="fill:#37474f"></path><path d="M127.89,315.38c.22,8,1.56,16,4,19a26,26,0,0,1-6.71-10.55A37,37,0,0,1,123,313.58Z" style="fill:#37474f"></path><path d="M223.76,222.56s-7.25-30.46-11-44.52c-4-15.07-8.92-16.95-19.47-19.54l-5.07,33.85s17,45.32,21.52,52.22c5.17,8,12.25,8.93,18.19,2.47,6.39-6.95,11-13.89,17-21.23,2.69-3.31,4.11-6.09,9.34-10.34,2.87-2.33,10-6,10.6-9.86.49-3.26-5.6-6.08-8.59-7.46a13.39,13.39,0,0,0-4.61-1.13c-1.18-.09-3.77-.46-4.82.13s-1.55,2.71-2.05,3.67a18.51,18.51,0,0,1-2.39,3.67C236.79,210.93,223.76,222.56,223.76,222.56Z" style="fill:#ffa8a7"></path><polygon points="223.76 222.56 212.37 229.74 223 219.38 223.76 222.56" style="fill:#f28f8f"></polygon><path d="M195.23,159c4.59.86,7.53,1.45,11.26,5.06s5.55,9.37,7.28,15.24,8.62,35.29,8.62,35.29-6.53,9.16-22.2,10c0,0-11.28-26.61-12.84-30.67S184.73,162.05,195.23,159Z" style="fill:#ebebeb"></path><path d="M158.6,152.73l-17.43-1.35s-4.33,32.17-11.09,33.47c-9.32,31-7.91,65.05-7.91,65.05s15.51,8.67,42.24,6.82c23.43-1.63,29.11-14.59,29.11-14.59s-3-14.1-3.1-18.58c-.31-12,6.07-30.87,7-38.7,2.17-18-4.12-26.35-4.12-26.35l-13.94-3.82Z" style="fill:#ebebeb"></path><path d="M180.22,155.39c6.55,5.85,5.24,14.38,4.39,18.45s-.55,11.47-.55,17.2-.17,39,.22,48.14A126.79,126.79,0,0,0,185.74,254s9.09-2.72,11.17-11.82c-.35-1-2.76-20.75-2.2-31s3.75-19.42,4.87-29.9-2.28-19.52-4.35-22.26c-4.16-2.4-14.92-4.37-14.92-4.37Z" style="fill:#008A76"></path><path d="M180.22,155.39c6.55,5.85,5.24,14.38,4.39,18.45s-.55,11.47-.55,17.2-.17,39,.22,48.14A126.79,126.79,0,0,0,185.74,254s9.09-2.72,11.17-11.82c-.35-1-2.76-20.75-2.2-31s3.75-19.42,4.87-29.9-2.28-19.52-4.35-22.26c-4.16-2.4-14.92-4.37-14.92-4.37Z" style="opacity:0.30000000000000004"></path><path d="M153.59,100c1.93-1.67,5-2.64,7.07-.47a3.7,3.7,0,0,1,.71,1.23c.11.28.2.56.28.84.67,2.38,0,4.44-.13,6.79q-.09,3-.2,6c-.09,2.54-.17,5.08-.26,7.62l1.57,0-.69,10.76-.92,8.91s-.81-.18-.88-.2c-2.22-.68-3.54-2.66-4.37-4.72-1.12-2.79-2.65-5.42-3.67-8.3a69.06,69.06,0,0,1-2.51-9c-.8-3.94-1.25-8-.33-12a14.16,14.16,0,0,1,4.29-7.43Z" style="fill:#263238"></path><path d="M208.33,102.37a.62.62,0,0,1,.38,0,.83.83,0,0,1,.34.33,10.79,10.79,0,0,1,1.58,6.56,9.86,9.86,0,0,1-1.59,4.93,6.85,6.85,0,0,1-4.2,2.9,2.74,2.74,0,0,1-1.53,0A3,3,0,0,1,202,116a14.8,14.8,0,0,1-1.54-2.64c-.77-1.61-1.44-3.44-.89-5.14a1.71,1.71,0,0,1,.44-.76,2.11,2.11,0,0,1,.69-.38,29.79,29.79,0,0,0,2.94-1.73c.88-.48,1.74-1,2.59-1.55S207.43,102.55,208.33,102.37Z" style="fill:#263238"></path><path d="M162.71,123.83c-1.23.54-2.58-1.86-3.81-3.51s-5.57-4.25-8.47.3.12,11.29,3.16,13.61A5.75,5.75,0,0,0,161,134l-2.91,22.51a24.58,24.58,0,0,0,15.2,12.27c10.88,2.88,9.74-6.53,6.66-11.46l.84-6.85s5.55,1.56,8.37,1.48c4.67-.13,8.83-.69,11.28-8.13,2.39-7.22,4.12-14,4.86-30.71.77-17.45-21.07-19.47-32.73-14S162.71,123.83,162.71,123.83Z" style="fill:#ffa8a7"></path><path d="M158.6,152.73A67.48,67.48,0,0,0,167,169.2c3.63,4.85,4,6.35,3.35,10.64s-6.45,38-8.46,53.16a223.81,223.81,0,0,0-1.81,29s-15.24.08-27.12-2.09-15.14-6.33-15.14-6.33,2.46-33.38,5.18-50.94,18.16-51.23,18.16-51.23Z" style="fill:#008A76"></path><path d="M158.6,152.73A67.48,67.48,0,0,0,167,169.2c3.63,4.85,4,6.35,3.35,10.64s-6.45,38-8.46,53.16a223.81,223.81,0,0,0-1.81,29s-15.24.08-27.12-2.09-15.14-6.33-15.14-6.33,2.46-33.38,5.18-50.94,18.16-51.23,18.16-51.23Z" style="opacity:0.30000000000000004"></path><path d="M129.69,230.72c-1.64,9.66-3.16,20.53-1.23,22.12,3.63,3,16.49,4.14,21,3.86,3.95-.25,5.32-22.21,5.32-22.21Z" style="opacity:0.15"></path><path d="M142.83,229.38c-8-1.37-12.57-2.12-13.14-1.59s.87,6.08,1.66,7.49,18.18,4.52,20.3,3.35,5.69-6.44,3.83-6.91C151.54,230.72,145.69,229.87,142.83,229.38Z" style="fill:#008A76"></path><path d="M142.83,229.38c-8-1.37-12.57-2.12-13.14-1.59s.87,6.08,1.66,7.49,18.18,4.52,20.3,3.35,5.69-6.44,3.83-6.91C151.54,230.72,145.69,229.87,142.83,229.38Z" style="opacity:0.55"></path><path d="M139.73,183.45c-1.64,9.66-3.16,20.53-1.23,22.12,3.63,3,16.5,4.14,21,3.86,3.95-.25,5.32-22.2,5.32-22.2Z" style="opacity:0.15"></path><path d="M152.87,182.11c-8-1.37-12.57-2.12-13.14-1.59s.87,6.08,1.66,7.5,18.18,4.51,20.3,3.34,5.69-6.43,3.83-6.91C161.59,183.45,155.73,182.6,152.87,182.11Z" style="fill:#008A76"></path><path d="M152.87,182.11c-8-1.37-12.57-2.12-13.14-1.59s.87,6.08,1.66,7.5,18.18,4.51,20.3,3.34,5.69-6.43,3.83-6.91C161.59,183.45,155.73,182.6,152.87,182.11Z" style="opacity:0.55"></path><path d="M162.47,125.75c-.57-.06-2.31-4-3.57-5.43a3.87,3.87,0,0,1-.38-2.49c.1-2.52.85-4.9.77-7.42s-1.11-4.71-1.76-7a12.93,12.93,0,0,1-.2-7.49,11.19,11.19,0,0,1,5.35-6.14,20.62,20.62,0,0,1,8-2.24c6-.6,12,.3,18,.5s12.28-.38,17.35-3.59c.4-.25.91-.51,1.3-.25a1.09,1.09,0,0,1,.3.37c1.39,2.53-.3,5.6-.39,8.49a8.49,8.49,0,0,0,6-.8c1.42,1.38,1.17,3.71.64,5.63a17.72,17.72,0,0,1-4.94,8.53c-2.31,2.1-6.2,1.6-8.76.24a1.19,1.19,0,0,0-.51-.17,1.21,1.21,0,0,0-.74.43c-2.69,2.62-6.89,3-10.57,2.27s-7.11-2.39-10.73-3.38a9.65,9.65,0,0,0-4.3-.38c-1.77.34-2.42,1.37-3.49,2.72a11.73,11.73,0,0,0-1.37,2,11.37,11.37,0,0,0-.78,2.35C167.2,114.22,165.54,126.07,162.47,125.75Z" style="fill:#263238"></path><path d="M180.82,150.43s-10-3.35-13.33-5.7a11.89,11.89,0,0,1-4.34-5.52,16.27,16.27,0,0,0,2.09,6.13c2.2,3.68,15.24,7.82,15.24,7.82Z" style="fill:#f28f8f"></path><path d="M183.7,123.35a2.07,2.07,0,1,1-1.79-2.39A2.1,2.1,0,0,1,183.7,123.35Z" style="fill:#263238"></path><path d="M181.06,113.27l-4.69,1.88a2.65,2.65,0,0,1,1.46-3.37A2.46,2.46,0,0,1,181.06,113.27Z" style="fill:#263238"></path><path d="M180.8,136.68l4.94,2.59a2.74,2.74,0,0,1-3.74,1.28A2.92,2.92,0,0,1,180.8,136.68Z" style="fill:#f28f8f"></path><path d="M202.63,118,199,114.41a2.44,2.44,0,0,1,3.55-.1A2.68,2.68,0,0,1,202.63,118Z" style="fill:#263238"></path><path d="M200.4,124.55a2.07,2.07,0,1,1-1.78-2.4A2.11,2.11,0,0,1,200.4,124.55Z" style="fill:#263238"></path><polygon points="190.08 121.98 189.21 134.41 197 132.8 190.08 121.98" style="fill:#f28f8f"></polygon><path d="M189,189.63c-.76,5.76-.39,18.81.56,20.22s6.72-.07,7.35-2.34,3-17.2,1.94-17.88S189,189.63,189,189.63Z" style="fill:#008A76"></path><path d="M189,189.63c-.76,5.76-.39,18.81.56,20.22s6.72-.07,7.35-2.34,3-17.2,1.94-17.88S189,189.63,189,189.63Z" style="opacity:0.4"></path><path d="M189,188.84c1.61.79,1.28,3.1,2.6,4.45.66.9,6.93.9,7.77.27.14-.76.37-3.65-.25-4.52C198,188.22,189,187.53,189,188.84Z" style="fill:#008A76"></path><path d="M189,188.84c1.61.79,1.28,3.1,2.6,4.45.66.9,6.93.9,7.77.27.14-.76.37-3.65-.25-4.52C198,188.22,189,187.53,189,188.84Z" style="opacity:0.55"></path><path d="M186.48,221.23c.08,5.82,2.33,18.68,3.47,19.93s6.64-1,6.93-3.37.51-17.45-.65-18S186.48,221.23,186.48,221.23Z" style="fill:#008A76"></path><path d="M186.48,221.23c.08,5.82,2.33,18.68,3.47,19.93s6.64-1,6.93-3.37.51-17.45-.65-18S186.48,221.23,186.48,221.23Z" style="opacity:0.4"></path><path d="M186.37,220.46c1.7.54,1.71,2.87,3.21,4,.79.8,7-.1,7.73-.85,0-.77-.16-3.67-.9-4.44C195.17,218.55,186.14,219.17,186.37,220.46Z" style="fill:#008A76"></path><path d="M186.37,220.46c1.7.54,1.71,2.87,3.21,4,.79.8,7-.1,7.73-.85,0-.77-.16-3.67-.9-4.44C195.17,218.55,186.14,219.17,186.37,220.46Z" style="opacity:0.55"></path><g id="freepik--Camera--inject-2"><path d="M222.39,211.81a7.87,7.87,0,0,1-6.36-.7l-5.89-3.92a7.75,7.75,0,0,1-3.11-6.27l1.05-16.52a6.11,6.11,0,0,1,.24-1.28,4.43,4.43,0,0,1,.15-.43s0,0,0,0,.1-.26.16-.39.16-.33.25-.49l.18-.34.21-.33.05-.08L222,189.43a7.15,7.15,0,0,0-1.25,3.37l-1,16.52C219.53,211.3,220.71,212.31,222.39,211.81Z" style="fill:#008A76"></path><path d="M222.39,211.81a7.87,7.87,0,0,1-6.36-.7l-5.89-3.92a7.75,7.75,0,0,1-3.11-6.27l1.05-16.52a6.11,6.11,0,0,1,.24-1.28,4.43,4.43,0,0,1,.15-.43s0,0,0,0,.1-.26.16-.39.16-.33.25-.49l.18-.34.21-.33.05-.08L222,189.43a7.15,7.15,0,0,0-1.25,3.37l-1,16.52C219.53,211.3,220.71,212.31,222.39,211.81Z" style="opacity:0.45"></path><path d="M255,168l-5.89-3.93a7.72,7.72,0,0,0-7-.44L240,164.72a4,4,0,0,1-1.23.4l.19.12h0l6.84,4.56.12.08h0a2.4,2.4,0,0,1,.71,1,4.37,4.37,0,0,0,6,2.22l2.11-1.06c1.91-.95,3.37-.08,3.38,1.93A7.79,7.79,0,0,0,255,168Z" style="fill:#008A76"></path><path d="M255,168l-5.89-3.93a7.72,7.72,0,0,0-7-.44L240,164.72a4,4,0,0,1-1.23.4l.19.12h0l6.84,4.56.12.08h0a2.4,2.4,0,0,1,.71,1,4.37,4.37,0,0,0,6,2.22l2.11-1.06c1.91-.95,3.37-.08,3.38,1.93A7.79,7.79,0,0,0,255,168Z" style="opacity:0.15"></path><path d="M250.24,169.72l.1-1.65-1.25-.08a6.19,6.19,0,0,0-5.36-.34l-1.26-.08-.1,1.65a2,2,0,0,0,1,1.69,6.17,6.17,0,0,0,5.56.35A2,2,0,0,0,250.24,169.72Z" style="fill:#263238"></path><path d="M243.73,166c-1.6.79-1.69,2.23-.21,3.21a6.16,6.16,0,0,0,5.57.36c1.59-.79,1.69-2.23.2-3.22A6.17,6.17,0,0,0,243.73,166Z" style="fill:#37474f"></path><path d="M258.06,174.29,257,190.81a7.76,7.76,0,0,1-3.88,5.82L223,211.55l-.27.12-.2.08-.16.05c-1.68.51-2.87-.5-2.74-2.48l1-16.52a7.22,7.22,0,0,1,1.25-3.38,7.84,7.84,0,0,1,1.84-2l.35-.24.36-.2.05,0,.14-.07,4.35-2.13A13,13,0,0,0,235.8,176a4.69,4.69,0,0,1,.77-1.68,3.72,3.72,0,0,1,1.32-1.22l6.57-3.25a1.31,1.31,0,0,1,1.3,0l.12.08a2.43,2.43,0,0,1,.72,1,4.38,4.38,0,0,0,6,2.23l2.11-1.07c1.91-.94,3.37-.09,3.38,1.93C258.06,174.1,258.06,174.19,258.06,174.29Z" style="fill:#008A76"></path><path d="M258.06,174.29,257,190.81a7.76,7.76,0,0,1-3.88,5.82L223,211.55l-.27.12-.2.08-.16.05c-1.68.51-2.87-.5-2.74-2.48l1-16.52a7.22,7.22,0,0,1,1.25-3.38,7.84,7.84,0,0,1,1.84-2l.35-.24.36-.2.05,0,.14-.07,4.35-2.13A13,13,0,0,0,235.8,176a4.69,4.69,0,0,1,.77-1.68,3.72,3.72,0,0,1,1.32-1.22l6.57-3.25a1.31,1.31,0,0,1,1.3,0l.12.08a2.43,2.43,0,0,1,.72,1,4.38,4.38,0,0,0,6,2.23l2.11-1.07c1.91-.94,3.37-.09,3.38,1.93C258.06,174.1,258.06,174.19,258.06,174.29Z" style="opacity:0.30000000000000004"></path><path d="M229.78,169.77h0l-5.83-3.88a5,5,0,0,0-.76,1.68,13,13,0,0,1-6.77,8.82l-4.57,2.25a7.19,7.19,0,0,0-2.51,2.38L222,189.43A7.12,7.12,0,0,1,224.5,187s4.51-2.22,4.54-2.23A13,13,0,0,0,235.8,176a4.87,4.87,0,0,1,.77-1.68Z" style="fill:#008A76"></path><path d="M229.78,169.77h0l-5.83-3.88a5,5,0,0,0-.76,1.68,13,13,0,0,1-6.77,8.82l-4.57,2.25a7.19,7.19,0,0,0-2.51,2.38L222,189.43A7.12,7.12,0,0,1,224.5,187s4.51-2.22,4.54-2.23A13,13,0,0,0,235.8,176a4.87,4.87,0,0,1,.77-1.68Z" style="opacity:0.15"></path><path d="M238.92,165.24h0l-.19-.12-5.48-3.65-.11-.07a1.31,1.31,0,0,0-1.3,0l-6.57,3.25a3.92,3.92,0,0,0-1.33,1.22l5.83,3.88h0l6.79,4.52a3.68,3.68,0,0,1,1.32-1.21l6.57-3.26a1.31,1.31,0,0,1,1.3,0Z" style="fill:#008A76"></path><path d="M217.56,179.81a1.86,1.86,0,0,0-1.58-.1l-.37,0,0,.48a.57.57,0,0,0,.31.5,1.83,1.83,0,0,0,1.64.11.59.59,0,0,0,.37-.46l0-.48Z" style="fill:#263238"></path><path d="M216,179.24c-.47.23-.49.65-.06.94a1.83,1.83,0,0,0,1.64.11.5.5,0,0,0,.06-.95A1.83,1.83,0,0,0,216,179.24Z" style="fill:#37474f"></path><path d="M220.64,179l0-.48-.37,0a1.79,1.79,0,0,0-1.58-.1l-.37,0,0,.49a.56.56,0,0,0,.31.49,1.83,1.83,0,0,0,1.64.11A.59.59,0,0,0,220.64,179Z" style="fill:#263238"></path><path d="M218.72,177.88a.5.5,0,0,0-.06,1,1.83,1.83,0,0,0,1.64.1.5.5,0,0,0,.06-.94A1.83,1.83,0,0,0,218.72,177.88Z" style="fill:#37474f"></path><path d="M220.11,181.51a1.83,1.83,0,0,0-1.58-.1l-.37,0,0,.49a.59.59,0,0,0,.31.5,1.8,1.8,0,0,0,1.63.1.57.57,0,0,0,.37-.45l0-.49Z" style="fill:#263238"></path><path d="M218.53,180.93c-.47.24-.5.66-.06.95a1.77,1.77,0,0,0,1.63.1.5.5,0,0,0,.07-.94A1.83,1.83,0,0,0,218.53,180.93Z" style="fill:#37474f"></path><path d="M223.18,180.66l0-.49-.36,0a1.83,1.83,0,0,0-1.58-.1l-.37,0,0,.48a.59.59,0,0,0,.31.5,1.8,1.8,0,0,0,1.63.1A.56.56,0,0,0,223.18,180.66Z" style="fill:#263238"></path><path d="M221.27,179.58a.5.5,0,0,0-.06.94,1.82,1.82,0,0,0,1.64.11.51.51,0,0,0,.06-.95A1.79,1.79,0,0,0,221.27,179.58Z" style="fill:#37474f"></path><path d="M226.36,184.36l0-.75-.56,0a2.77,2.77,0,0,0-2.43-.16l-.57,0,0,.75a.88.88,0,0,0,.47.76,2.77,2.77,0,0,0,2.52.16A.9.9,0,0,0,226.36,184.36Z" style="fill:#263238"></path><path d="M223.41,182.69a.77.77,0,0,0-.09,1.45,2.77,2.77,0,0,0,2.52.16c.72-.35.76-1,.09-1.45A2.8,2.8,0,0,0,223.41,182.69Z" style="fill:#37474f"></path><path d="M251.06,183.33h0l-.26-.17c-1.5-.91-3.62-.88-6,.31-5,2.46-9.28,8.94-9.63,14.48a9.26,9.26,0,0,0,.2,2.75,5.27,5.27,0,0,0,1.41,2.57,4.06,4.06,0,0,0,.51.42h0l0,0,0,0,.13.09,5.62,3.74a4.84,4.84,0,0,1-.64-.56,6.68,6.68,0,0,1-1.48-5.19c.35-5.53,4.67-12,9.64-14.48a6.67,6.67,0,0,1,5.35-.63,4,4,0,0,1,.69.33Z" style="fill:#008A76"></path><path d="M251.06,183.33h0l-.26-.17c-1.5-.91-3.62-.88-6,.31-5,2.46-9.28,8.94-9.63,14.48a9.26,9.26,0,0,0,.2,2.75,5.27,5.27,0,0,0,1.41,2.57,4.06,4.06,0,0,0,.51.42h0l0,0,0,0,.13.09,5.62,3.74a4.84,4.84,0,0,1-.64-.56,6.68,6.68,0,0,1-1.48-5.19c.35-5.53,4.67-12,9.64-14.48a6.67,6.67,0,0,1,5.35-.63,4,4,0,0,1,.69.33Z" style="opacity:0.15"></path><path d="M236.75,203.27a3.45,3.45,0,0,0,.51.42l-3-2h0l0,0c-1.48-1-2.32-3-2.14-5.75.35-5.53,4.66-12,9.63-14.48a7.89,7.89,0,0,1,4-.93,4.44,4.44,0,0,1,2.23.72l2.89,1.92c-1.5-.91-3.62-.88-6,.31-5,2.46-9.28,8.94-9.63,14.48a9.26,9.26,0,0,0,.2,2.75A5.19,5.19,0,0,0,236.75,203.27Z" style="fill:#008A76"></path><path d="M236.75,203.27a3.45,3.45,0,0,0,.51.42l-3-2h0l0,0c-1.48-1-2.32-3-2.14-5.75.35-5.53,4.66-12,9.63-14.48a7.89,7.89,0,0,1,4-.93,4.44,4.44,0,0,1,2.23.72l2.89,1.92c-1.5-.91-3.62-.88-6,.31-5,2.46-9.28,8.94-9.63,14.48a9.26,9.26,0,0,0,.2,2.75A5.19,5.19,0,0,0,236.75,203.27Z" style="opacity:0.55"></path><path d="M268.08,199c-.35,5.53-4.66,12-9.63,14.47a7.78,7.78,0,0,1-3.95.94,4.49,4.49,0,0,1-2.21-.71h0l-9.05-6-.13-.08a4.84,4.84,0,0,1-.64-.56,6.68,6.68,0,0,1-1.48-5.19c.35-5.53,4.67-12,9.64-14.48a6.67,6.67,0,0,1,5.35-.63,4,4,0,0,1,.69.33l0,0,.23.16,9,6h0C267.41,194.19,268.26,196.2,268.08,199Z" style="fill:#008A76"></path><path d="M268.08,199c-.35,5.53-4.66,12-9.63,14.47a7.78,7.78,0,0,1-3.95.94,4.49,4.49,0,0,1-2.21-.71h0l-9.05-6-.13-.08a4.84,4.84,0,0,1-.64-.56,6.68,6.68,0,0,1-1.48-5.19c.35-5.53,4.67-12,9.64-14.48a6.67,6.67,0,0,1,5.35-.63,4,4,0,0,1,.69.33l0,0,.23.16,9,6h0C267.41,194.19,268.26,196.2,268.08,199Z" style="opacity:0.45"></path><path d="M265,197.54c.13,1.39.25,2.77.29,4.17.1,2.74-.24,5.91.46,8.58,0,.19.19,1,.53.63,1.05-1,1.64-3.06,2.18-4.39a28.21,28.21,0,0,0,2.1-8.26c.08-1.15-.14-2.3,0-3.42a4.77,4.77,0,0,0-1.62-3.94,16.53,16.53,0,0,0-3.84-2.4,10.12,10.12,0,0,1-3.61-2.71,8.93,8.93,0,0,0-1.94-2.44,4.33,4.33,0,0,0-2.57-.46,16.65,16.65,0,0,0-7.6,2.34,2.26,2.26,0,0,0-1.09,1.11,1.54,1.54,0,0,0,.46,1.53,3.13,3.13,0,0,0,1.51.72,6.88,6.88,0,0,0,2.71.08.86.86,0,0,1,.74.07c.27.22.15.65.15,1a1.88,1.88,0,0,0,1.51,1.62,16.74,16.74,0,0,0,2.35.27,9.56,9.56,0,0,1,2.29.86,13.19,13.19,0,0,1,3.2,1.88A4.58,4.58,0,0,1,265,197.54Z" style="fill:#ffa8a7"></path><path d="M264.73,191.43c-1.6-1.07-3.89-1.09-6.52.21C253,194.25,248.39,201.11,248,207c-.19,2.87.67,4.95,2.21,6,.52.36,4,2.54,4.5,2.87,1.6,1.07,3.9,1.09,6.53-.21,5.26-2.61,9.82-9.47,10.2-15.32.18-2.89-.7-5-2.26-6.06C268.69,193.93,265.23,191.76,264.73,191.43Z" style="fill:#455a64"></path><path d="M252.42,209.77c-.37,5.85,3.59,8.49,8.84,5.89s9.82-9.47,10.2-15.32-3.59-8.49-8.85-5.88S252.79,203.92,252.42,209.77Z" style="fill:#37474f"></path><path d="M257.23,214.39c-2.55-.16-2.63-3.18-2.55-4.48.32-5,4.42-11.18,8.94-13.43a6.29,6.29,0,0,1,3-.76c2.54.16,2.63,3.19,2.55,4.48-.32,5-4.42,11.18-8.94,13.43a6.31,6.31,0,0,1-3,.76Z" style="fill:#263238"></path><path d="M266.37,197a7.51,7.51,0,0,0,0-1.26,6.59,6.59,0,0,0-2.75.75c-4.52,2.25-8.62,8.4-8.94,13.43a9.08,9.08,0,0,0,0,1.27,6.47,6.47,0,0,0,2.75-.76C262,208.18,266.05,202,266.37,197Z" style="fill:#008A76"></path><path d="M266.37,197a7.51,7.51,0,0,0,0-1.26,6.59,6.59,0,0,0-2.75.75c-4.52,2.25-8.62,8.4-8.94,13.43a9.08,9.08,0,0,0,0,1.27,6.47,6.47,0,0,0,2.75-.76C262,208.18,266.05,202,266.37,197Z" style="opacity:0.30000000000000004"></path><path d="M261.08,199.17c1.85-2,4.12-2.53,4.42-1.74s-1.27,8.25-8.81,12.22a25.65,25.65,0,0,0,6.32-7.31C264.29,199.91,263.39,197.8,261.08,199.17Z" style="fill:#e0e0e0"></path><path d="M239.59,174.6l4.5-2.23c.68-.34,1.2,0,1.15.68a2.55,2.55,0,0,1-1.32,1.91l-4.49,2.23c-.69.33-1.2,0-1.16-.69A2.58,2.58,0,0,1,239.59,174.6Z" style="fill:#008A76"></path><path d="M224.18,205.93l5.3-2.62c.81-.4,1.42,0,1.36.8a3,3,0,0,1-1.55,2.25L224,209c-.81.4-1.42,0-1.37-.81A3,3,0,0,1,224.18,205.93Z" style="fill:#37474f"></path><path d="M253.17,214.12a8.32,8.32,0,0,1-.75-4.35A18,18,0,0,1,255,202l-20.37-13.56a17.06,17.06,0,0,0-2.51,7.46c-.18,2.74.66,4.74,2.14,5.75l0,0h0l3,2h0l0,0,0,0,.13.09,5.61,3.73h0l.13.08,5.59,3.71h0a4.68,4.68,0,0,0,1.41,1.63c.47.33,3.38,2.15,4.29,2.73A4.56,4.56,0,0,1,253.17,214.12Z" style="opacity:0.15"></path></g><path d="M227.73,191.1l-.4-.85a12.6,12.6,0,0,1-1.4-3,6.17,6.17,0,0,0-.61-2.56,3.37,3.37,0,0,0-3.6-1.23,7.68,7.68,0,0,0-3.41,2.13c-.57.55-1.12,1.14-1.7,1.68-2.08,1.93-4.13,3.93-6.36,5.71-.68.54-1.37,1.07-2.09,1.58-.08.05-.75.41-.75.51s.22-3.72.33-5.26c-2.63-.37-5.9,4.68-9,9.8a23.75,23.75,0,0,1-6,5.91c-5.25,3.28-20.19,10.93-30.49,14.11-2.5-8.37-7.78-28.9-9.93-36.13.82-15.81-8.11-29.36-11.29-31.06-16.23,0-18.87,17.51-15.27,33.32,2.63,11.55,9.13,36.65,14.54,49.68,2.64,6.34,6.08,9.71,8.1,10.81s7.59,2.07,22.39-5.41c7.92-4,17.07-10.14,28.2-17.44,5.56-3.65,9.71-6.65,13.48-9.12,5.35-3.51,10.87-7.74,14.11-13.39a16.82,16.82,0,0,0,2-5.34A7.49,7.49,0,0,0,227.73,191.1Z" style="fill:#ffa8a7"></path><path d="M142.41,151.47s-9.37-1.6-13.84,3.92a25.69,25.69,0,0,0-5.4,20.54c1.31,7.58,6,35,9.09,44.17,0,0,18.07.31,28.22-9.9l-7.07-29s-.59-12.51-3.6-19.38C145.33,151.62,142.41,151.47,142.41,151.47Z" style="fill:#ebebeb"></path><path d="M235.66,211.48c2-1.66,1.86-5.67.92-7.93a8.6,8.6,0,0,1-.25-3.88,15.58,15.58,0,0,1,.89-4,2,2,0,0,1,1.06-1.34,1.68,1.68,0,0,1,1.74.84,6.43,6.43,0,0,1,.93,3.5,16,16,0,0,0,.35,3.66,10,10,0,0,0,2.08,3.49,7.79,7.79,0,0,1,.92,1.61,4.8,4.8,0,0,0,1,1.59l1,.63a4.33,4.33,0,0,1-1.91.71,14.66,14.66,0,0,0-2.29-.21c-.9.07-1.8.24-2.69.36S236.68,211.34,235.66,211.48Z" style="fill:#ffa8a7"></path></g></g><g id="freepik--Zoom--inject-2"><g id="freepik--focus-bubble--inject-2"><path d="M403.5,64.35a4.15,4.15,0,0,0-1.59-3.7c-1.06-.68-5.48-3.08-6.47-3.71s-2.55-.62-4.21.34l-97.34,56.2a12.82,12.82,0,0,0-5.81,10.06v16.07L269.5,158.92a1.44,1.44,0,0,0,.17,2.14c.27.21,5.85,3.24,6.48,3.72a1.45,1.45,0,0,0,1,.27l10.91-1.26v40.69a4.19,4.19,0,0,0,1.56,3.67c1.06.7,5.5,3.06,6.45,3.7s2.58.67,4.27-.3l97.34-56.2a12.85,12.85,0,0,0,5.8-10.06Z" style="fill:#008A76"></path><path d="M403.5,64.35a4.15,4.15,0,0,0-1.59-3.7c-1.06-.68-5.48-3.08-6.47-3.71s-2.55-.62-4.21.34l-97.34,56.2a12.82,12.82,0,0,0-5.81,10.06v16.07L269.5,158.92a1.44,1.44,0,0,0,.17,2.14c.27.21,5.85,3.24,6.48,3.72a1.45,1.45,0,0,0,1,.27l10.91-1.26v40.69a4.19,4.19,0,0,0,1.56,3.67c1.06.7,5.5,3.06,6.45,3.7s2.58.67,4.27-.3l97.34-56.2a12.85,12.85,0,0,0,5.8-10.06Z" style="opacity:0.15"></path><path d="M403.5,64.35c0-1.79-105.72,58.07-105.72,58.07l-8-4.62a11.85,11.85,0,0,0-1.71,5.74v16.07L269.5,158.92a1.44,1.44,0,0,0,.17,2.14c.27.21,5.85,3.24,6.48,3.72a1.45,1.45,0,0,0,1,.27l10.91-1.26v40.69a4.19,4.19,0,0,0,1.56,3.67c1.06.7,5.5,3.06,6.45,3.7s2.58.67,4.27-.3l97.34-56.2a12.85,12.85,0,0,0,5.8-10.06Z" style="opacity:0.15"></path><polygon points="288.08 139.62 294.55 143.33 287.86 150.29 281.4 146.56 288.08 139.62" style="opacity:0.15"></polygon><path d="M296.09,211.85c-.95-.64-5.38-3-6.45-3.7a4.19,4.19,0,0,1-1.55-3.67V163.79l-2.17.25,2.06-6.15,6.57,5.15v45.15A4.2,4.2,0,0,0,296.09,211.85Z" style="opacity:0.15"></path><path d="M403.5,64.35c0-3.71-2.6-5.21-5.8-3.36l-97.34,56.2a12.84,12.84,0,0,0-5.81,10.06v16.08L276,162.64a1.43,1.43,0,0,0,1.2,2.41l17.38-2v45.15c0,3.71,2.6,5.21,5.81,3.36l97.34-56.2a12.85,12.85,0,0,0,5.8-10.06Z" style="fill:#008A76"></path><path d="M403.5,64.35v80.94a12.85,12.85,0,0,1-5.8,10.06l-97.34,56.2c-3.21,1.85-5.81.35-5.81-3.36V127.25a12.84,12.84,0,0,1,5.81-10.06L397.7,61C400.9,59.14,403.5,60.64,403.5,64.35Z" style="fill:#008A76"></path><path d="M352.89,125.21s-5.2-7.13,3.05-20.9S375.12,87,375.12,87s8.59,18-2.08,33.57S352.89,125.21,352.89,125.21Z" style="fill:#008A76"></path><path d="M352.89,125.21s-5.2-7.13,3.05-20.9S375.12,87,375.12,87s8.59,18-2.08,33.57S352.89,125.21,352.89,125.21Z" style="opacity:0.1"></path><path d="M373,120.6c-6.54,9.53-12.62,9.1-16.35,7.34C356.21,107.65,375.12,87,375.12,87S383.71,105.07,373,120.6Z" style="opacity:0.1"></path><path d="M359.39,138.86s6,12.69,16.5,9.82c10.32-2.81,17.54-17.53,17.54-17.53s-10.82-12.79-22.78-8.14C360.51,127,359.39,138.86,359.39,138.86Z" style="fill:#008A76"></path><path d="M359.39,138.86s6,12.69,16.5,9.82c10.32-2.81,17.54-17.53,17.54-17.53s-10.82-12.79-22.78-8.14C360.51,127,359.39,138.86,359.39,138.86Z" style="opacity:0.1"></path><path d="M375.89,148.68c10.32-2.81,17.54-17.53,17.54-17.53-14.22-4.51-34,7.71-34,7.71S365.4,151.55,375.89,148.68Z" style="opacity:0.1"></path><path d="M313.09,141.46a6.82,6.82,0,0,0,3.1,6.14c-.29-.17-.59,2.5-.58,2.73a5.11,5.11,0,0,0,1.05,2.86c1.42,1.72,3.91,2.05,5.86,2.05,5.62,0,12.76-3.55,17.14-7.79a38.87,38.87,0,0,1-7.56,7.42c-3,2.24-6.83,3.47-9.77,5.8a4.18,4.18,0,0,0-1.43,5,3.3,3.3,0,0,0,3.68,2.37,6.35,6.35,0,0,0-2.26,4.91,4.36,4.36,0,0,0,3.17,3.89,5.93,5.93,0,0,0,4.77-1.17,21.87,21.87,0,0,0,3.86-3.78,3.8,3.8,0,0,0,3.38,4.18c1.86.1,3.62-1.15,5-2.65,4.47-4.84,6.08-12.19,7.47-19.09a12.06,12.06,0,0,0,3.89,8.89,9.28,9.28,0,0,0,8.05,1.73,4.06,4.06,0,0,0,2.91-2.59c.27-.82.26-1.75.61-2.54a3.23,3.23,0,0,1,1.63-1.61c1.82-.85,3.76-1.52,4.27-4.2a4.63,4.63,0,0,0-.53-3.16,10.19,10.19,0,0,0,3.67-5.89c.88-3.63-1-5.79-4.06-6.18-3.25-.42-6.43.63-9.77-.32a21.89,21.89,0,0,0,12.51-4.82c3.68-3.16,7.41-6.25,9.82-11a9.35,9.35,0,0,0,1.25-4.88c-.15-1.7-1.37-3.33-2.83-3.16a12.6,12.6,0,0,0,.31-6.06c-.48-2-1.81-3.68-3.53-4a3.89,3.89,0,0,0-4,2.7,3.53,3.53,0,0,0-3.87-3.74c-1.92.32-3.48,2.15-4.4,4.19a49.63,49.63,0,0,0-2,6.48,24.27,24.27,0,0,1-6.49,11,26.07,26.07,0,0,0-2.88-18,10.62,10.62,0,0,0-2.8-3.42,4,4,0,0,0-3.94-.61,3.83,3.83,0,0,0-2.1,3.81c-2.47-2.82-7-4-9.29.07a8.33,8.33,0,0,0-.5,6.46c-.29-.88-2.33.4-2.67.68a4.71,4.71,0,0,0-1.56,3.24,7.4,7.4,0,0,0,1.53,4.73,22.92,22.92,0,0,0,3.34,3.34,41.26,41.26,0,0,1,8.4,9.63,26.88,26.88,0,0,1-12.34-5.43,40.63,40.63,0,0,0-3.88-2.85c-3.13-1.84-7.83-1.62-9.91,2.34a8.12,8.12,0,0,0,0,7.27,3.94,3.94,0,0,0-4.48,1.47A6.45,6.45,0,0,0,313.09,141.46Z" style="fill:#455a64"></path><path d="M371.12,118.87a21.27,21.27,0,0,1-4,5.92,33.83,33.83,0,0,1-5.27,4.64c-1.75,1.26-3.53,2.49-5.36,3.62-.88.55-1.79,1.06-2.71,1.53s-1.67.73-2.46,1.22c0-.4,0-.81,0-1.21,0-.88,0-1.76,0-2.63a28.13,28.13,0,0,0-1.16-5.8,41.07,41.07,0,0,0-2.26-5.9c-.76-1.64-1.63-4-3.18-4.78-.17-.08-.5,0-.39.27.29.86.67,1.63.92,2.52s.55,1.86.87,2.77c.67,1.93,1.3,3.88,1.78,5.89a34.4,34.4,0,0,1,1,5.56c.06.88,0,1.78,0,2.66a8.93,8.93,0,0,0,.07,2.07,1.36,1.36,0,0,0-.56.71c-.06.13-.1.26-.15.39-.25.13-.48.29-.68.4-.48.26-1,.53-1.45.78a15.38,15.38,0,0,1-3.14,1.2,24.91,24.91,0,0,1-5.8.83,20.32,20.32,0,0,1-5.47-.84c-1.21-.32-2.4-.71-3.61-1.06a7.46,7.46,0,0,1-2.72-1.13c-.16-.13-.35,0-.23.22a3.71,3.71,0,0,0,1.62,1.5c1,.57,2.08,1.08,3.12,1.61a16.4,16.4,0,0,0,6.53,1.95,21.82,21.82,0,0,0,6.82-.61,18.24,18.24,0,0,0,3.36-1.27l.42-.21c-.34,1-.69,1.92-1.1,2.85-.9,2.1-1.88,4.17-2.95,6.15a65.51,65.51,0,0,1-8.52,12c-.23.27.28.74.51.58,7-4.73,11.95-13.35,15-22.1a20.31,20.31,0,0,0,4.87,5.57,23,23,0,0,0,4.18,2.74c.76.38,1.53.74,2.31,1.05a16,16,0,0,1,2.19.89c.2.11.25-.14.14-.3a9,9,0,0,0-2.63-2.44c-1.41-1-2.84-2-4.18-3.08a20.07,20.07,0,0,1-5.87-7.62l0,0a.87.87,0,0,0,.17.07,5.41,5.41,0,0,0,2.93-.88,30.4,30.4,0,0,0,3.4-1.95,66.07,66.07,0,0,0,5.72-4.07,34,34,0,0,0,5.19-5.06,20.27,20.27,0,0,0,2.12-3.21,19.18,19.18,0,0,0,1.19-3.57C371.66,119,371.24,118.56,371.12,118.87Z" style="fill:#37474f"></path><path d="M351,134.55c3.18-1,5.11.78,4.31,4a12,12,0,0,1-7.21,7.67c-3.18,1-5.11-.78-4.31-4A12,12,0,0,1,351,134.55Z" style="fill:#f0997a"></path><path d="M352.32,141c-2.42,3.35-6.34,4.91-8.4,4.19.65,1.24,2.15,1.71,4.14,1.07a12,12,0,0,0,7.21-7.67c.52-2.11-.14-3.59-1.54-4.09C354.36,135.9,354.33,138.19,352.32,141Z" style="opacity:0.05"></path><path d="M303.63,137a.72.72,0,0,1-.72-.72V125.78a.73.73,0,0,1,.36-.62l9.07-5.24a.77.77,0,0,1,.36-.09.71.71,0,0,1,.62.36.7.7,0,0,1-.26,1l-8.71,5v10.07A.72.72,0,0,1,303.63,137Z" style="fill:#fafafa"></path><path d="M303.63,199.89a.77.77,0,0,1-.36-.09.73.73,0,0,1-.36-.63V188.69a.72.72,0,1,1,1.44,0v9.24l8-4.62a.74.74,0,0,1,.36-.09.73.73,0,0,1,.7.9.72.72,0,0,1-.34.44L304,199.8A.74.74,0,0,1,303.63,199.89Z" style="fill:#fafafa"></path><path d="M394.42,84.57a.72.72,0,0,1-.72-.72V74.61l-8,4.62a.68.68,0,0,1-.36.1.73.73,0,0,1-.63-.36.75.75,0,0,1-.07-.55A.7.7,0,0,1,385,78l9.07-5.25a.77.77,0,0,1,.36-.09.74.74,0,0,1,.36.09.71.71,0,0,1,.36.63V83.85A.72.72,0,0,1,394.42,84.57Z" style="fill:#fafafa"></path><path d="M385.35,152.72a.73.73,0,0,1-.63-.36.75.75,0,0,1-.07-.55.74.74,0,0,1,.33-.44l8.72-5V136.27a.72.72,0,1,1,1.44,0v10.48a.71.71,0,0,1-.36.63l-9.08,5.24A.74.74,0,0,1,385.35,152.72Z" style="fill:#fafafa"></path><g style="opacity:0.5"><path d="M343.52,162.82a9.5,9.5,0,0,1-4.82-1.26c-4.05-2.34-6.38-7.7-6.38-14.7,0-13,8-28.21,17.76-33.86a14.63,14.63,0,0,1,7.28-2.18,9.54,9.54,0,0,1,4.83,1.26c4.05,2.34,6.37,7.69,6.37,14.69,0,13-8,28.22-17.76,33.87A14.6,14.6,0,0,1,343.52,162.82Zm13.84-50.56a13.29,13.29,0,0,0-6.56,2c-9.39,5.43-17,20.06-17,32.62,0,6.48,2.06,11.38,5.66,13.45a8,8,0,0,0,4.11,1.07,13.17,13.17,0,0,0,6.55-2c9.4-5.42,17-20,17-32.62,0-6.47-2.06-11.37-5.65-13.44A8.1,8.1,0,0,0,357.36,112.26Z" style="fill:#fafafa"></path><path d="M350.44,118.55a.72.72,0,0,1-.72-.72V106.18a.72.72,0,0,1,1.44,0v11.65A.72.72,0,0,1,350.44,118.55Z" style="fill:#fafafa"></path><path d="M327.47,150.8a.72.72,0,0,1-.37-1.34l8.74-5a.68.68,0,0,1,.36-.1.73.73,0,0,1,.63.36.72.72,0,0,1-.27,1l-8.74,5.05A.7.7,0,0,1,327.47,150.8Z" style="fill:#fafafa"></path><path d="M350.44,168.18a.73.73,0,0,1-.72-.72V155.8a.72.72,0,1,1,1.44,0v11.66A.72.72,0,0,1,350.44,168.18Z" style="fill:#fafafa"></path><path d="M364.68,129.32a.73.73,0,0,1-.62-.36.71.71,0,0,1,.26-1l8.74-5a.75.75,0,0,1,.36-.1.72.72,0,0,1,.36,1.35l-8.74,5A.75.75,0,0,1,364.68,129.32Z" style="fill:#fafafa"></path></g></g></g></svg>